<?xml version="1.0" encoding="utf-8" standalone="no"?>
<!DOCTYPE svg PUBLIC "-//W3C//DTD SVG 1.1//EN"
  "http://www.w3.org/Graphics/SVG/1.1/DTD/svg11.dtd">
<svg xmlns:xlink="http://www.w3.org/1999/xlink" width="282.6625pt" height="279.220312pt" viewBox="0 0 282.6625 279.220312" xmlns="http://www.w3.org/2000/svg" version="1.1">
 <metadata>
  <rdf:RDF xmlns:dc="http://purl.org/dc/elements/1.1/" xmlns:cc="http://creativecommons.org/ns#" xmlns:rdf="http://www.w3.org/1999/02/22-rdf-syntax-ns#">
   <cc:Work>
    <dc:type rdf:resource="http://purl.org/dc/dcmitype/StillImage"/>
    <dc:date>2026-04-20T14:49:01.891191</dc:date>
    <dc:format>image/svg+xml</dc:format>
    <dc:creator>
     <cc:Agent>
      <dc:title>Matplotlib v3.10.8, https://matplotlib.org/</dc:title>
     </cc:Agent>
    </dc:creator>
   </cc:Work>
  </rdf:RDF>
 </metadata>
 <defs>
  <style type="text/css">*{stroke-linejoin: round; stroke-linecap: butt}</style>
 </defs>
 <g id="figure_1">
  <g id="patch_1">
   <path d="M 0 279.220312 
L 282.6625 279.220312 
L 282.6625 0 
L 0 0 
z
" style="fill: #ffffff"/>
  </g>
  <g id="axes_1">
   <g id="patch_2">
    <path d="M 52.2625 243.86625 
L 275.4625 243.86625 
L 275.4625 22.10625 
L 52.2625 22.10625 
z
" style="fill: #ffffff"/>
   </g>
   <g id="FillBetweenPolyCollection_1">
    <path d="M 106.16001 230.259363 
L 91.49506 230.259363 
L 90.8612 228.258624 
L 90.197304 226.257886 
L 89.504577 224.257147 
L 88.784767 222.256409 
L 88.040218 220.25567 
L 87.273897 218.254931 
L 86.489401 216.254193 
L 85.690925 214.253454 
L 84.8832 212.252716 
L 84.071392 210.251977 
L 83.260974 208.251239 
L 82.457567 206.2505 
L 81.666765 204.249762 
L 80.893953 202.249023 
L 80.144118 200.248285 
L 79.421683 198.247546 
L 78.730361 196.246808 
L 78.073037 194.246069 
L 77.451698 192.245331 
L 76.867406 190.244592 
L 76.320313 188.243854 
L 75.809724 186.243115 
L 75.334196 184.242377 
L 74.891664 182.241638 
L 74.479591 180.2409 
L 74.095119 178.240161 
L 73.735222 176.239423 
L 73.396839 174.238684 
L 73.076987 172.237946 
L 72.77284 170.237207 
L 72.481783 168.236469 
L 72.201428 166.23573 
L 71.92961 164.234992 
L 71.664356 162.234253 
L 71.40385 160.233515 
L 71.14639 158.232776 
L 70.89036 156.232038 
L 70.634211 154.231299 
L 70.376476 152.230561 
L 70.115806 150.229822 
L 69.851034 148.229084 
L 69.581272 146.228345 
L 69.306019 144.227607 
L 69.025294 142.226868 
L 68.739758 140.22613 
L 68.450834 138.225391 
L 68.160806 136.224653 
L 67.872884 134.223914 
L 67.591231 132.223176 
L 67.320934 130.222437 
L 67.067934 128.221699 
L 66.8389 126.22096 
L 66.641045 124.220221 
L 66.481912 122.219483 
L 66.369113 120.218744 
L 66.310052 118.218006 
L 66.311638 116.217267 
L 66.379992 114.216529 
L 66.520182 112.21579 
L 66.735987 110.215052 
L 67.029699 108.214313 
L 67.401981 106.213575 
L 67.851793 104.212836 
L 68.37637 102.212098 
L 68.971276 100.211359 
L 69.630524 98.210621 
L 70.346749 96.209882 
L 71.111439 94.209144 
L 71.915207 92.208405 
L 72.748097 90.207667 
L 73.599897 88.206928 
L 74.460474 86.20619 
L 75.32008 84.205451 
L 76.169654 82.204713 
L 77.00108 80.203974 
L 77.807403 78.203236 
L 78.583003 76.202497 
L 79.323701 74.201759 
L 80.026823 72.20102 
L 80.691191 70.200282 
L 81.317065 68.199543 
L 81.906041 66.198805 
L 82.46089 64.198066 
L 82.985372 62.197328 
L 83.484019 60.196589 
L 83.961898 58.195851 
L 84.42437 56.195112 
L 84.876848 54.194374 
L 85.32457 52.193635 
L 85.772387 50.192897 
L 86.224587 48.192158 
L 86.684738 46.19142 
L 87.155582 44.190681 
L 87.63896 42.189943 
L 88.135777 40.189204 
L 88.64601 38.188466 
L 89.168745 36.187727 
L 89.702255 34.186989 
L 90.244099 32.18625 
L 107.410971 32.18625 
L 107.410971 32.18625 
L 107.952814 34.186989 
L 108.486325 36.187727 
L 109.00906 38.188466 
L 109.519293 40.189204 
L 110.01611 42.189943 
L 110.499488 44.190681 
L 110.970332 46.19142 
L 111.430483 48.192158 
L 111.882682 50.192897 
L 112.3305 52.193635 
L 112.778222 54.194374 
L 113.2307 56.195112 
L 113.693172 58.195851 
L 114.171051 60.196589 
L 114.669698 62.197328 
L 115.19418 64.198066 
L 115.749029 66.198805 
L 116.338005 68.199543 
L 116.963879 70.200282 
L 117.628247 72.20102 
L 118.331369 74.201759 
L 119.072067 76.202497 
L 119.847667 78.203236 
L 120.65399 80.203974 
L 121.485416 82.204713 
L 122.33499 84.205451 
L 123.194596 86.20619 
L 124.055173 88.206928 
L 124.906973 90.207667 
L 125.739863 92.208405 
L 126.543631 94.209144 
L 127.308321 96.209882 
L 128.024546 98.210621 
L 128.683794 100.211359 
L 129.2787 102.212098 
L 129.803277 104.212836 
L 130.253089 106.213575 
L 130.625371 108.214313 
L 130.919083 110.215052 
L 131.134888 112.21579 
L 131.275078 114.216529 
L 131.343432 116.217267 
L 131.345017 118.218006 
L 131.285957 120.218744 
L 131.173158 122.219483 
L 131.014025 124.220221 
L 130.81617 126.22096 
L 130.587136 128.221699 
L 130.334136 130.222437 
L 130.063839 132.223176 
L 129.782185 134.223914 
L 129.494264 136.224653 
L 129.204236 138.225391 
L 128.915312 140.22613 
L 128.629775 142.226868 
L 128.34905 144.227607 
L 128.073798 146.228345 
L 127.804035 148.229084 
L 127.539264 150.229822 
L 127.278593 152.230561 
L 127.020859 154.231299 
L 126.76471 156.232038 
L 126.508679 158.232776 
L 126.25122 160.233515 
L 125.990714 162.234253 
L 125.72546 164.234992 
L 125.453642 166.23573 
L 125.173287 168.236469 
L 124.88223 170.237207 
L 124.578083 172.237946 
L 124.258231 174.238684 
L 123.919848 176.239423 
L 123.559951 178.240161 
L 123.175479 180.2409 
L 122.763406 182.241638 
L 122.320874 184.242377 
L 121.845346 186.243115 
L 121.334757 188.243854 
L 120.787664 190.244592 
L 120.203372 192.245331 
L 119.582033 194.246069 
L 118.924709 196.246808 
L 118.233387 198.247546 
L 117.510952 200.248285 
L 116.761117 202.249023 
L 115.988305 204.249762 
L 115.197503 206.2505 
L 114.394096 208.251239 
L 113.583678 210.251977 
L 112.77187 212.252716 
L 111.964145 214.253454 
L 111.165669 216.254193 
L 110.381173 218.254931 
L 109.614852 220.25567 
L 108.870302 222.256409 
L 108.150493 224.257147 
L 107.457766 226.257886 
L 106.79387 228.258624 
L 106.16001 230.259363 
z
" clip-path="url(#pc7dcd5646c)" style="fill: #1f77b4; fill-opacity: 0.3"/>
   </g>
   <g id="FillBetweenPolyCollection_2">
    <path d="M 231.540457 233.78625 
L 226.254473 233.78625 
L 226.201229 231.806069 
L 226.159984 229.825889 
L 226.124425 227.845708 
L 226.086679 225.865527 
L 226.037639 223.885347 
L 225.967396 221.905166 
L 225.865747 219.924985 
L 225.722748 217.944805 
L 225.52928 215.964624 
L 225.277582 213.984443 
L 224.96171 212.004263 
L 224.577901 210.024082 
L 224.124786 208.043902 
L 223.603456 206.063721 
L 223.017357 204.08354 
L 222.372015 202.10336 
L 221.674616 200.123179 
L 220.933464 198.142998 
L 220.157365 196.162818 
L 219.354981 194.182637 
L 218.534221 192.202456 
L 217.701724 190.222276 
L 216.862483 188.242095 
L 216.019654 186.261914 
L 215.174576 184.281734 
L 214.327 182.301553 
L 213.475509 180.321372 
L 212.618095 178.341192 
L 211.752811 176.361011 
L 210.878449 174.38083 
L 209.995146 172.40065 
L 209.104844 170.420469 
L 208.211557 168.440289 
L 207.321374 166.460108 
L 206.442218 164.479927 
L 205.58334 162.499747 
L 204.75463 160.519566 
L 203.965783 158.539385 
L 203.225436 156.559205 
L 202.540346 154.579024 
L 201.914731 152.598843 
L 201.349826 150.618663 
L 200.843728 148.638482 
L 200.391552 146.658301 
L 199.985893 144.678121 
L 199.61755 142.69794 
L 199.276465 140.717759 
L 198.952778 138.737579 
L 198.637919 136.757398 
L 198.325625 134.777217 
L 198.012816 132.797037 
L 197.700239 130.816856 
L 197.392831 128.836676 
L 197.099774 126.856495 
L 196.834228 124.876314 
L 196.612754 122.896134 
L 196.454471 120.915953 
L 196.379983 118.935772 
L 196.410159 116.955592 
L 196.56483 114.975411 
L 196.86149 112.99523 
L 197.314085 111.01505 
L 197.931974 109.034869 
L 198.719123 107.054688 
L 199.673602 105.074508 
L 200.787424 103.094327 
L 202.046729 101.114146 
L 203.432326 99.133966 
L 204.920545 97.153785 
L 206.484343 95.173604 
L 208.094605 93.193424 
L 209.721519 91.213243 
L 211.335963 89.233062 
L 212.910779 87.252882 
L 214.421872 85.272701 
L 215.849052 83.292521 
L 217.176582 81.31234 
L 218.393418 79.332159 
L 219.493145 77.351979 
L 220.473652 75.371798 
L 221.336589 73.391617 
L 222.086697 71.411437 
L 222.731057 69.431256 
L 223.278357 67.451075 
L 223.738216 65.470895 
L 224.120619 63.490714 
L 224.435498 61.510533 
L 224.692442 59.530353 
L 224.90054 57.550172 
L 225.068338 55.569991 
L 225.203843 53.589811 
L 225.314579 51.60963 
L 225.407619 49.629449 
L 225.489598 47.649269 
L 225.566678 45.669088 
L 225.64446 43.688908 
L 225.727863 41.708727 
L 225.820973 39.728546 
L 225.926907 37.748366 
L 231.868023 37.748366 
L 231.868023 37.748366 
L 231.973957 39.728546 
L 232.067067 41.708727 
L 232.15047 43.688908 
L 232.228253 45.669088 
L 232.305332 47.649269 
L 232.387312 49.629449 
L 232.480351 51.60963 
L 232.591087 53.589811 
L 232.726592 55.569991 
L 232.89439 57.550172 
L 233.102488 59.530353 
L 233.359432 61.510533 
L 233.674311 63.490714 
L 234.056714 65.470895 
L 234.516573 67.451075 
L 235.063873 69.431256 
L 235.708233 71.411437 
L 236.458341 73.391617 
L 237.321278 75.371798 
L 238.301785 77.351979 
L 239.401512 79.332159 
L 240.618348 81.31234 
L 241.945878 83.292521 
L 243.373058 85.272701 
L 244.884151 87.252882 
L 246.458967 89.233062 
L 248.073411 91.213243 
L 249.700325 93.193424 
L 251.310587 95.173604 
L 252.874385 97.153785 
L 254.362604 99.133966 
L 255.748201 101.114146 
L 257.007506 103.094327 
L 258.121328 105.074508 
L 259.075807 107.054688 
L 259.862956 109.034869 
L 260.480845 111.01505 
L 260.93344 112.99523 
L 261.2301 114.975411 
L 261.384771 116.955592 
L 261.414948 118.935772 
L 261.340459 120.915953 
L 261.182176 122.896134 
L 260.960702 124.876314 
L 260.695156 126.856495 
L 260.402099 128.836676 
L 260.094691 130.816856 
L 259.782114 132.797037 
L 259.469305 134.777217 
L 259.157011 136.757398 
L 258.842152 138.737579 
L 258.518465 140.717759 
L 258.17738 142.69794 
L 257.809037 144.678121 
L 257.403378 146.658301 
L 256.951202 148.638482 
L 256.445104 150.618663 
L 255.880199 152.598843 
L 255.254584 154.579024 
L 254.569494 156.559205 
L 253.829147 158.539385 
L 253.040301 160.519566 
L 252.21159 162.499747 
L 251.352712 164.479927 
L 250.473556 166.460108 
L 249.583374 168.440289 
L 248.690086 170.420469 
L 247.799784 172.40065 
L 246.916481 174.38083 
L 246.042119 176.361011 
L 245.176835 178.341192 
L 244.319421 180.321372 
L 243.46793 182.301553 
L 242.620354 184.281734 
L 241.775276 186.261914 
L 240.932447 188.242095 
L 240.093206 190.222276 
L 239.260709 192.202456 
L 238.43995 194.182637 
L 237.637565 196.162818 
L 236.861466 198.142998 
L 236.120314 200.123179 
L 235.422915 202.10336 
L 234.777573 204.08354 
L 234.191474 206.063721 
L 233.670144 208.043902 
L 233.217029 210.024082 
L 232.83322 212.004263 
L 232.517348 213.984443 
L 232.26565 215.964624 
L 232.072182 217.944805 
L 231.929183 219.924985 
L 231.827534 221.905166 
L 231.757292 223.885347 
L 231.708252 225.865527 
L 231.670505 227.845708 
L 231.634946 229.825889 
L 231.593701 231.806069 
L 231.540457 233.78625 
z
" clip-path="url(#pc7dcd5646c)" style="fill: #1f77b4; fill-opacity: 0.3"/>
   </g>
   <g id="matplotlib.axis_1">
    <g id="xtick_1">
     <g id="line2d_1">
      <defs>
       <path id="m32b8c5d9c2" d="M 0 0 
L 0 3.5 
" style="stroke: #000000; stroke-width: 0.8"/>
      </defs>
      <g>
       <use xlink:href="#m32b8c5d9c2" x="98.827535" y="243.86625" style="stroke: #000000; stroke-width: 0.8"/>
      </g>
     </g>
     <g id="text_1">
      <!-- eye_tracking -->
      <g transform="translate(66.758785 258.464687) scale(0.1 -0.1)">
       <defs>
        <path id="DejaVuSans-65" d="M 3597 1894 
L 3597 1613 
L 953 1613 
Q 991 1019 1311 708 
Q 1631 397 2203 397 
Q 2534 397 2845 478 
Q 3156 559 3463 722 
L 3463 178 
Q 3153 47 2828 -22 
Q 2503 -91 2169 -91 
Q 1331 -91 842 396 
Q 353 884 353 1716 
Q 353 2575 817 3079 
Q 1281 3584 2069 3584 
Q 2775 3584 3186 3129 
Q 3597 2675 3597 1894 
z
M 3022 2063 
Q 3016 2534 2758 2815 
Q 2500 3097 2075 3097 
Q 1594 3097 1305 2825 
Q 1016 2553 972 2059 
L 3022 2063 
z
" transform="scale(0.015625)"/>
        <path id="DejaVuSans-79" d="M 2059 -325 
Q 1816 -950 1584 -1140 
Q 1353 -1331 966 -1331 
L 506 -1331 
L 506 -850 
L 844 -850 
Q 1081 -850 1212 -737 
Q 1344 -625 1503 -206 
L 1606 56 
L 191 3500 
L 800 3500 
L 1894 763 
L 2988 3500 
L 3597 3500 
L 2059 -325 
z
" transform="scale(0.015625)"/>
        <path id="DejaVuSans-5f" d="M 3263 -1063 
L 3263 -1509 
L -63 -1509 
L -63 -1063 
L 3263 -1063 
z
" transform="scale(0.015625)"/>
        <path id="DejaVuSans-74" d="M 1172 4494 
L 1172 3500 
L 2356 3500 
L 2356 3053 
L 1172 3053 
L 1172 1153 
Q 1172 725 1289 603 
Q 1406 481 1766 481 
L 2356 481 
L 2356 0 
L 1766 0 
Q 1100 0 847 248 
Q 594 497 594 1153 
L 594 3053 
L 172 3053 
L 172 3500 
L 594 3500 
L 594 4494 
L 1172 4494 
z
" transform="scale(0.015625)"/>
        <path id="DejaVuSans-72" d="M 2631 2963 
Q 2534 3019 2420 3045 
Q 2306 3072 2169 3072 
Q 1681 3072 1420 2755 
Q 1159 2438 1159 1844 
L 1159 0 
L 581 0 
L 581 3500 
L 1159 3500 
L 1159 2956 
Q 1341 3275 1631 3429 
Q 1922 3584 2338 3584 
Q 2397 3584 2469 3576 
Q 2541 3569 2628 3553 
L 2631 2963 
z
" transform="scale(0.015625)"/>
        <path id="DejaVuSans-61" d="M 2194 1759 
Q 1497 1759 1228 1600 
Q 959 1441 959 1056 
Q 959 750 1161 570 
Q 1363 391 1709 391 
Q 2188 391 2477 730 
Q 2766 1069 2766 1631 
L 2766 1759 
L 2194 1759 
z
M 3341 1997 
L 3341 0 
L 2766 0 
L 2766 531 
Q 2569 213 2275 61 
Q 1981 -91 1556 -91 
Q 1019 -91 701 211 
Q 384 513 384 1019 
Q 384 1609 779 1909 
Q 1175 2209 1959 2209 
L 2766 2209 
L 2766 2266 
Q 2766 2663 2505 2880 
Q 2244 3097 1772 3097 
Q 1472 3097 1187 3025 
Q 903 2953 641 2809 
L 641 3341 
Q 956 3463 1253 3523 
Q 1550 3584 1831 3584 
Q 2591 3584 2966 3190 
Q 3341 2797 3341 1997 
z
" transform="scale(0.015625)"/>
        <path id="DejaVuSans-63" d="M 3122 3366 
L 3122 2828 
Q 2878 2963 2633 3030 
Q 2388 3097 2138 3097 
Q 1578 3097 1268 2742 
Q 959 2388 959 1747 
Q 959 1106 1268 751 
Q 1578 397 2138 397 
Q 2388 397 2633 464 
Q 2878 531 3122 666 
L 3122 134 
Q 2881 22 2623 -34 
Q 2366 -91 2075 -91 
Q 1284 -91 818 406 
Q 353 903 353 1747 
Q 353 2603 823 3093 
Q 1294 3584 2113 3584 
Q 2378 3584 2631 3529 
Q 2884 3475 3122 3366 
z
" transform="scale(0.015625)"/>
        <path id="DejaVuSans-6b" d="M 581 4863 
L 1159 4863 
L 1159 1991 
L 2875 3500 
L 3609 3500 
L 1753 1863 
L 3688 0 
L 2938 0 
L 1159 1709 
L 1159 0 
L 581 0 
L 581 4863 
z
" transform="scale(0.015625)"/>
        <path id="DejaVuSans-69" d="M 603 3500 
L 1178 3500 
L 1178 0 
L 603 0 
L 603 3500 
z
M 603 4863 
L 1178 4863 
L 1178 4134 
L 603 4134 
L 603 4863 
z
" transform="scale(0.015625)"/>
        <path id="DejaVuSans-6e" d="M 3513 2113 
L 3513 0 
L 2938 0 
L 2938 2094 
Q 2938 2591 2744 2837 
Q 2550 3084 2163 3084 
Q 1697 3084 1428 2787 
Q 1159 2491 1159 1978 
L 1159 0 
L 581 0 
L 581 3500 
L 1159 3500 
L 1159 2956 
Q 1366 3272 1645 3428 
Q 1925 3584 2291 3584 
Q 2894 3584 3203 3211 
Q 3513 2838 3513 2113 
z
" transform="scale(0.015625)"/>
        <path id="DejaVuSans-67" d="M 2906 1791 
Q 2906 2416 2648 2759 
Q 2391 3103 1925 3103 
Q 1463 3103 1205 2759 
Q 947 2416 947 1791 
Q 947 1169 1205 825 
Q 1463 481 1925 481 
Q 2391 481 2648 825 
Q 2906 1169 2906 1791 
z
M 3481 434 
Q 3481 -459 3084 -895 
Q 2688 -1331 1869 -1331 
Q 1566 -1331 1297 -1286 
Q 1028 -1241 775 -1147 
L 775 -588 
Q 1028 -725 1275 -790 
Q 1522 -856 1778 -856 
Q 2344 -856 2625 -561 
Q 2906 -266 2906 331 
L 2906 616 
Q 2728 306 2450 153 
Q 2172 0 1784 0 
Q 1141 0 747 490 
Q 353 981 353 1791 
Q 353 2603 747 3093 
Q 1141 3584 1784 3584 
Q 2172 3584 2450 3431 
Q 2728 3278 2906 2969 
L 2906 3500 
L 3481 3500 
L 3481 434 
z
" transform="scale(0.015625)"/>
       </defs>
       <use xlink:href="#DejaVuSans-65"/>
       <use xlink:href="#DejaVuSans-79" transform="translate(61.523438 0)"/>
       <use xlink:href="#DejaVuSans-65" transform="translate(120.703125 0)"/>
       <use xlink:href="#DejaVuSans-5f" transform="translate(182.226562 0)"/>
       <use xlink:href="#DejaVuSans-74" transform="translate(232.226562 0)"/>
       <use xlink:href="#DejaVuSans-72" transform="translate(271.435547 0)"/>
       <use xlink:href="#DejaVuSans-61" transform="translate(312.548828 0)"/>
       <use xlink:href="#DejaVuSans-63" transform="translate(373.828125 0)"/>
       <use xlink:href="#DejaVuSans-6b" transform="translate(428.808594 0)"/>
       <use xlink:href="#DejaVuSans-69" transform="translate(486.71875 0)"/>
       <use xlink:href="#DejaVuSans-6e" transform="translate(514.501953 0)"/>
       <use xlink:href="#DejaVuSans-67" transform="translate(577.880859 0)"/>
      </g>
      <!-- Single -->
      <g transform="translate(83.45566 269.940625) scale(0.1 -0.1)">
       <defs>
        <path id="DejaVuSans-53" d="M 3425 4513 
L 3425 3897 
Q 3066 4069 2747 4153 
Q 2428 4238 2131 4238 
Q 1616 4238 1336 4038 
Q 1056 3838 1056 3469 
Q 1056 3159 1242 3001 
Q 1428 2844 1947 2747 
L 2328 2669 
Q 3034 2534 3370 2195 
Q 3706 1856 3706 1288 
Q 3706 609 3251 259 
Q 2797 -91 1919 -91 
Q 1588 -91 1214 -16 
Q 841 59 441 206 
L 441 856 
Q 825 641 1194 531 
Q 1563 422 1919 422 
Q 2459 422 2753 634 
Q 3047 847 3047 1241 
Q 3047 1584 2836 1778 
Q 2625 1972 2144 2069 
L 1759 2144 
Q 1053 2284 737 2584 
Q 422 2884 422 3419 
Q 422 4038 858 4394 
Q 1294 4750 2059 4750 
Q 2388 4750 2728 4690 
Q 3069 4631 3425 4513 
z
" transform="scale(0.015625)"/>
        <path id="DejaVuSans-6c" d="M 603 4863 
L 1178 4863 
L 1178 0 
L 603 0 
L 603 4863 
z
" transform="scale(0.015625)"/>
       </defs>
       <use xlink:href="#DejaVuSans-53"/>
       <use xlink:href="#DejaVuSans-69" transform="translate(63.476562 0)"/>
       <use xlink:href="#DejaVuSans-6e" transform="translate(91.259766 0)"/>
       <use xlink:href="#DejaVuSans-67" transform="translate(154.638672 0)"/>
       <use xlink:href="#DejaVuSans-6c" transform="translate(218.115234 0)"/>
       <use xlink:href="#DejaVuSans-65" transform="translate(245.898438 0)"/>
      </g>
     </g>
    </g>
    <g id="xtick_2">
     <g id="line2d_2">
      <g>
       <use xlink:href="#m32b8c5d9c2" x="228.897465" y="243.86625" style="stroke: #000000; stroke-width: 0.8"/>
      </g>
     </g>
     <g id="text_2">
      <!-- face_tracking -->
      <g transform="translate(195.291215 258.464687) scale(0.1 -0.1)">
       <defs>
        <path id="DejaVuSans-66" d="M 2375 4863 
L 2375 4384 
L 1825 4384 
Q 1516 4384 1395 4259 
Q 1275 4134 1275 3809 
L 1275 3500 
L 2222 3500 
L 2222 3053 
L 1275 3053 
L 1275 0 
L 697 0 
L 697 3053 
L 147 3053 
L 147 3500 
L 697 3500 
L 697 3744 
Q 697 4328 969 4595 
Q 1241 4863 1831 4863 
L 2375 4863 
z
" transform="scale(0.015625)"/>
       </defs>
       <use xlink:href="#DejaVuSans-66"/>
       <use xlink:href="#DejaVuSans-61" transform="translate(35.205078 0)"/>
       <use xlink:href="#DejaVuSans-63" transform="translate(96.484375 0)"/>
       <use xlink:href="#DejaVuSans-65" transform="translate(151.464844 0)"/>
       <use xlink:href="#DejaVuSans-5f" transform="translate(212.988281 0)"/>
       <use xlink:href="#DejaVuSans-74" transform="translate(262.988281 0)"/>
       <use xlink:href="#DejaVuSans-72" transform="translate(302.197266 0)"/>
       <use xlink:href="#DejaVuSans-61" transform="translate(343.310547 0)"/>
       <use xlink:href="#DejaVuSans-63" transform="translate(404.589844 0)"/>
       <use xlink:href="#DejaVuSans-6b" transform="translate(459.570312 0)"/>
       <use xlink:href="#DejaVuSans-69" transform="translate(517.480469 0)"/>
       <use xlink:href="#DejaVuSans-6e" transform="translate(545.263672 0)"/>
       <use xlink:href="#DejaVuSans-67" transform="translate(608.642578 0)"/>
      </g>
      <!-- Single -->
      <g transform="translate(213.52559 269.940625) scale(0.1 -0.1)">
       <use xlink:href="#DejaVuSans-53"/>
       <use xlink:href="#DejaVuSans-69" transform="translate(63.476562 0)"/>
       <use xlink:href="#DejaVuSans-6e" transform="translate(91.259766 0)"/>
       <use xlink:href="#DejaVuSans-67" transform="translate(154.638672 0)"/>
       <use xlink:href="#DejaVuSans-6c" transform="translate(218.115234 0)"/>
       <use xlink:href="#DejaVuSans-65" transform="translate(245.898438 0)"/>
      </g>
     </g>
    </g>
   </g>
   <g id="matplotlib.axis_2">
    <g id="ytick_1">
     <g id="line2d_3">
      <path d="M 52.2625 223.198884 
L 275.4625 223.198884 
" clip-path="url(#pc7dcd5646c)" style="fill: none; stroke: #b0b0b0; stroke-opacity: 0.3; stroke-width: 0.8; stroke-linecap: square"/>
     </g>
     <g id="line2d_4">
      <defs>
       <path id="m12d2e00000" d="M 0 0 
L -3.5 0 
" style="stroke: #000000; stroke-width: 0.8"/>
      </defs>
      <g>
       <use xlink:href="#m12d2e00000" x="52.2625" y="223.198884" style="stroke: #000000; stroke-width: 0.8"/>
      </g>
     </g>
     <g id="text_3">
      <!-- −0.4 -->
      <g transform="translate(20.979688 226.998103) scale(0.1 -0.1)">
       <defs>
        <path id="DejaVuSans-2212" d="M 678 2272 
L 4684 2272 
L 4684 1741 
L 678 1741 
L 678 2272 
z
" transform="scale(0.015625)"/>
        <path id="DejaVuSans-30" d="M 2034 4250 
Q 1547 4250 1301 3770 
Q 1056 3291 1056 2328 
Q 1056 1369 1301 889 
Q 1547 409 2034 409 
Q 2525 409 2770 889 
Q 3016 1369 3016 2328 
Q 3016 3291 2770 3770 
Q 2525 4250 2034 4250 
z
M 2034 4750 
Q 2819 4750 3233 4129 
Q 3647 3509 3647 2328 
Q 3647 1150 3233 529 
Q 2819 -91 2034 -91 
Q 1250 -91 836 529 
Q 422 1150 422 2328 
Q 422 3509 836 4129 
Q 1250 4750 2034 4750 
z
" transform="scale(0.015625)"/>
        <path id="DejaVuSans-2e" d="M 684 794 
L 1344 794 
L 1344 0 
L 684 0 
L 684 794 
z
" transform="scale(0.015625)"/>
        <path id="DejaVuSans-34" d="M 2419 4116 
L 825 1625 
L 2419 1625 
L 2419 4116 
z
M 2253 4666 
L 3047 4666 
L 3047 1625 
L 3713 1625 
L 3713 1100 
L 3047 1100 
L 3047 0 
L 2419 0 
L 2419 1100 
L 313 1100 
L 313 1709 
L 2253 4666 
z
" transform="scale(0.015625)"/>
       </defs>
       <use xlink:href="#DejaVuSans-2212"/>
       <use xlink:href="#DejaVuSans-30" transform="translate(83.789062 0)"/>
       <use xlink:href="#DejaVuSans-2e" transform="translate(147.412109 0)"/>
       <use xlink:href="#DejaVuSans-34" transform="translate(179.199219 0)"/>
      </g>
     </g>
    </g>
    <g id="ytick_2">
     <g id="line2d_5">
      <path d="M 52.2625 197.233871 
L 275.4625 197.233871 
" clip-path="url(#pc7dcd5646c)" style="fill: none; stroke: #b0b0b0; stroke-opacity: 0.3; stroke-width: 0.8; stroke-linecap: square"/>
     </g>
     <g id="line2d_6">
      <g>
       <use xlink:href="#m12d2e00000" x="52.2625" y="197.233871" style="stroke: #000000; stroke-width: 0.8"/>
      </g>
     </g>
     <g id="text_4">
      <!-- −0.3 -->
      <g transform="translate(20.979688 201.03309) scale(0.1 -0.1)">
       <defs>
        <path id="DejaVuSans-33" d="M 2597 2516 
Q 3050 2419 3304 2112 
Q 3559 1806 3559 1356 
Q 3559 666 3084 287 
Q 2609 -91 1734 -91 
Q 1441 -91 1130 -33 
Q 819 25 488 141 
L 488 750 
Q 750 597 1062 519 
Q 1375 441 1716 441 
Q 2309 441 2620 675 
Q 2931 909 2931 1356 
Q 2931 1769 2642 2001 
Q 2353 2234 1838 2234 
L 1294 2234 
L 1294 2753 
L 1863 2753 
Q 2328 2753 2575 2939 
Q 2822 3125 2822 3475 
Q 2822 3834 2567 4026 
Q 2313 4219 1838 4219 
Q 1578 4219 1281 4162 
Q 984 4106 628 3988 
L 628 4550 
Q 988 4650 1302 4700 
Q 1616 4750 1894 4750 
Q 2613 4750 3031 4423 
Q 3450 4097 3450 3541 
Q 3450 3153 3228 2886 
Q 3006 2619 2597 2516 
z
" transform="scale(0.015625)"/>
       </defs>
       <use xlink:href="#DejaVuSans-2212"/>
       <use xlink:href="#DejaVuSans-30" transform="translate(83.789062 0)"/>
       <use xlink:href="#DejaVuSans-2e" transform="translate(147.412109 0)"/>
       <use xlink:href="#DejaVuSans-33" transform="translate(179.199219 0)"/>
      </g>
     </g>
    </g>
    <g id="ytick_3">
     <g id="line2d_7">
      <path d="M 52.2625 171.268858 
L 275.4625 171.268858 
" clip-path="url(#pc7dcd5646c)" style="fill: none; stroke: #b0b0b0; stroke-opacity: 0.3; stroke-width: 0.8; stroke-linecap: square"/>
     </g>
     <g id="line2d_8">
      <g>
       <use xlink:href="#m12d2e00000" x="52.2625" y="171.268858" style="stroke: #000000; stroke-width: 0.8"/>
      </g>
     </g>
     <g id="text_5">
      <!-- −0.2 -->
      <g transform="translate(20.979688 175.068077) scale(0.1 -0.1)">
       <defs>
        <path id="DejaVuSans-32" d="M 1228 531 
L 3431 531 
L 3431 0 
L 469 0 
L 469 531 
Q 828 903 1448 1529 
Q 2069 2156 2228 2338 
Q 2531 2678 2651 2914 
Q 2772 3150 2772 3378 
Q 2772 3750 2511 3984 
Q 2250 4219 1831 4219 
Q 1534 4219 1204 4116 
Q 875 4013 500 3803 
L 500 4441 
Q 881 4594 1212 4672 
Q 1544 4750 1819 4750 
Q 2544 4750 2975 4387 
Q 3406 4025 3406 3419 
Q 3406 3131 3298 2873 
Q 3191 2616 2906 2266 
Q 2828 2175 2409 1742 
Q 1991 1309 1228 531 
z
" transform="scale(0.015625)"/>
       </defs>
       <use xlink:href="#DejaVuSans-2212"/>
       <use xlink:href="#DejaVuSans-30" transform="translate(83.789062 0)"/>
       <use xlink:href="#DejaVuSans-2e" transform="translate(147.412109 0)"/>
       <use xlink:href="#DejaVuSans-32" transform="translate(179.199219 0)"/>
      </g>
     </g>
    </g>
    <g id="ytick_4">
     <g id="line2d_9">
      <path d="M 52.2625 145.303845 
L 275.4625 145.303845 
" clip-path="url(#pc7dcd5646c)" style="fill: none; stroke: #b0b0b0; stroke-opacity: 0.3; stroke-width: 0.8; stroke-linecap: square"/>
     </g>
     <g id="line2d_10">
      <g>
       <use xlink:href="#m12d2e00000" x="52.2625" y="145.303845" style="stroke: #000000; stroke-width: 0.8"/>
      </g>
     </g>
     <g id="text_6">
      <!-- −0.1 -->
      <g transform="translate(20.979688 149.103064) scale(0.1 -0.1)">
       <defs>
        <path id="DejaVuSans-31" d="M 794 531 
L 1825 531 
L 1825 4091 
L 703 3866 
L 703 4441 
L 1819 4666 
L 2450 4666 
L 2450 531 
L 3481 531 
L 3481 0 
L 794 0 
L 794 531 
z
" transform="scale(0.015625)"/>
       </defs>
       <use xlink:href="#DejaVuSans-2212"/>
       <use xlink:href="#DejaVuSans-30" transform="translate(83.789062 0)"/>
       <use xlink:href="#DejaVuSans-2e" transform="translate(147.412109 0)"/>
       <use xlink:href="#DejaVuSans-31" transform="translate(179.199219 0)"/>
      </g>
     </g>
    </g>
    <g id="ytick_5">
     <g id="line2d_11">
      <path d="M 52.2625 119.338832 
L 275.4625 119.338832 
" clip-path="url(#pc7dcd5646c)" style="fill: none; stroke: #b0b0b0; stroke-opacity: 0.3; stroke-width: 0.8; stroke-linecap: square"/>
     </g>
     <g id="line2d_12">
      <g>
       <use xlink:href="#m12d2e00000" x="52.2625" y="119.338832" style="stroke: #000000; stroke-width: 0.8"/>
      </g>
     </g>
     <g id="text_7">
      <!-- 0.0 -->
      <g transform="translate(29.359375 123.138051) scale(0.1 -0.1)">
       <use xlink:href="#DejaVuSans-30"/>
       <use xlink:href="#DejaVuSans-2e" transform="translate(63.623047 0)"/>
       <use xlink:href="#DejaVuSans-30" transform="translate(95.410156 0)"/>
      </g>
     </g>
    </g>
    <g id="ytick_6">
     <g id="line2d_13">
      <path d="M 52.2625 93.37382 
L 275.4625 93.37382 
" clip-path="url(#pc7dcd5646c)" style="fill: none; stroke: #b0b0b0; stroke-opacity: 0.3; stroke-width: 0.8; stroke-linecap: square"/>
     </g>
     <g id="line2d_14">
      <g>
       <use xlink:href="#m12d2e00000" x="52.2625" y="93.37382" style="stroke: #000000; stroke-width: 0.8"/>
      </g>
     </g>
     <g id="text_8">
      <!-- 0.1 -->
      <g transform="translate(29.359375 97.173038) scale(0.1 -0.1)">
       <use xlink:href="#DejaVuSans-30"/>
       <use xlink:href="#DejaVuSans-2e" transform="translate(63.623047 0)"/>
       <use xlink:href="#DejaVuSans-31" transform="translate(95.410156 0)"/>
      </g>
     </g>
    </g>
    <g id="ytick_7">
     <g id="line2d_15">
      <path d="M 52.2625 67.408807 
L 275.4625 67.408807 
" clip-path="url(#pc7dcd5646c)" style="fill: none; stroke: #b0b0b0; stroke-opacity: 0.3; stroke-width: 0.8; stroke-linecap: square"/>
     </g>
     <g id="line2d_16">
      <g>
       <use xlink:href="#m12d2e00000" x="52.2625" y="67.408807" style="stroke: #000000; stroke-width: 0.8"/>
      </g>
     </g>
     <g id="text_9">
      <!-- 0.2 -->
      <g transform="translate(29.359375 71.208025) scale(0.1 -0.1)">
       <use xlink:href="#DejaVuSans-30"/>
       <use xlink:href="#DejaVuSans-2e" transform="translate(63.623047 0)"/>
       <use xlink:href="#DejaVuSans-32" transform="translate(95.410156 0)"/>
      </g>
     </g>
    </g>
    <g id="ytick_8">
     <g id="line2d_17">
      <path d="M 52.2625 41.443794 
L 275.4625 41.443794 
" clip-path="url(#pc7dcd5646c)" style="fill: none; stroke: #b0b0b0; stroke-opacity: 0.3; stroke-width: 0.8; stroke-linecap: square"/>
     </g>
     <g id="line2d_18">
      <g>
       <use xlink:href="#m12d2e00000" x="52.2625" y="41.443794" style="stroke: #000000; stroke-width: 0.8"/>
      </g>
     </g>
     <g id="text_10">
      <!-- 0.3 -->
      <g transform="translate(29.359375 45.243013) scale(0.1 -0.1)">
       <use xlink:href="#DejaVuSans-30"/>
       <use xlink:href="#DejaVuSans-2e" transform="translate(63.623047 0)"/>
       <use xlink:href="#DejaVuSans-33" transform="translate(95.410156 0)"/>
      </g>
     </g>
    </g>
    <g id="text_11">
     <!-- Spearman_HRV -->
     <g transform="translate(14.621875 171.426094) rotate(-90) scale(0.1 -0.1)">
      <defs>
       <path id="DejaVuSans-70" d="M 1159 525 
L 1159 -1331 
L 581 -1331 
L 581 3500 
L 1159 3500 
L 1159 2969 
Q 1341 3281 1617 3432 
Q 1894 3584 2278 3584 
Q 2916 3584 3314 3078 
Q 3713 2572 3713 1747 
Q 3713 922 3314 415 
Q 2916 -91 2278 -91 
Q 1894 -91 1617 61 
Q 1341 213 1159 525 
z
M 3116 1747 
Q 3116 2381 2855 2742 
Q 2594 3103 2138 3103 
Q 1681 3103 1420 2742 
Q 1159 2381 1159 1747 
Q 1159 1113 1420 752 
Q 1681 391 2138 391 
Q 2594 391 2855 752 
Q 3116 1113 3116 1747 
z
" transform="scale(0.015625)"/>
       <path id="DejaVuSans-6d" d="M 3328 2828 
Q 3544 3216 3844 3400 
Q 4144 3584 4550 3584 
Q 5097 3584 5394 3201 
Q 5691 2819 5691 2113 
L 5691 0 
L 5113 0 
L 5113 2094 
Q 5113 2597 4934 2840 
Q 4756 3084 4391 3084 
Q 3944 3084 3684 2787 
Q 3425 2491 3425 1978 
L 3425 0 
L 2847 0 
L 2847 2094 
Q 2847 2600 2669 2842 
Q 2491 3084 2119 3084 
Q 1678 3084 1418 2786 
Q 1159 2488 1159 1978 
L 1159 0 
L 581 0 
L 581 3500 
L 1159 3500 
L 1159 2956 
Q 1356 3278 1631 3431 
Q 1906 3584 2284 3584 
Q 2666 3584 2933 3390 
Q 3200 3197 3328 2828 
z
" transform="scale(0.015625)"/>
       <path id="DejaVuSans-48" d="M 628 4666 
L 1259 4666 
L 1259 2753 
L 3553 2753 
L 3553 4666 
L 4184 4666 
L 4184 0 
L 3553 0 
L 3553 2222 
L 1259 2222 
L 1259 0 
L 628 0 
L 628 4666 
z
" transform="scale(0.015625)"/>
       <path id="DejaVuSans-52" d="M 2841 2188 
Q 3044 2119 3236 1894 
Q 3428 1669 3622 1275 
L 4263 0 
L 3584 0 
L 2988 1197 
Q 2756 1666 2539 1819 
Q 2322 1972 1947 1972 
L 1259 1972 
L 1259 0 
L 628 0 
L 628 4666 
L 2053 4666 
Q 2853 4666 3247 4331 
Q 3641 3997 3641 3322 
Q 3641 2881 3436 2590 
Q 3231 2300 2841 2188 
z
M 1259 4147 
L 1259 2491 
L 2053 2491 
Q 2509 2491 2742 2702 
Q 2975 2913 2975 3322 
Q 2975 3731 2742 3939 
Q 2509 4147 2053 4147 
L 1259 4147 
z
" transform="scale(0.015625)"/>
       <path id="DejaVuSans-56" d="M 1831 0 
L 50 4666 
L 709 4666 
L 2188 738 
L 3669 4666 
L 4325 4666 
L 2547 0 
L 1831 0 
z
" transform="scale(0.015625)"/>
      </defs>
      <use xlink:href="#DejaVuSans-53"/>
      <use xlink:href="#DejaVuSans-70" transform="translate(63.476562 0)"/>
      <use xlink:href="#DejaVuSans-65" transform="translate(126.953125 0)"/>
      <use xlink:href="#DejaVuSans-61" transform="translate(188.476562 0)"/>
      <use xlink:href="#DejaVuSans-72" transform="translate(249.755859 0)"/>
      <use xlink:href="#DejaVuSans-6d" transform="translate(289.119141 0)"/>
      <use xlink:href="#DejaVuSans-61" transform="translate(386.53125 0)"/>
      <use xlink:href="#DejaVuSans-6e" transform="translate(447.810547 0)"/>
      <use xlink:href="#DejaVuSans-5f" transform="translate(511.189453 0)"/>
      <use xlink:href="#DejaVuSans-48" transform="translate(561.189453 0)"/>
      <use xlink:href="#DejaVuSans-52" transform="translate(636.384766 0)"/>
      <use xlink:href="#DejaVuSans-56" transform="translate(700.367188 0)"/>
     </g>
    </g>
   </g>
   <g id="LineCollection_1">
    <path d="M 82.568794 130.963165 
L 115.086276 130.963165 
" clip-path="url(#pc7dcd5646c)" style="fill: none; stroke: #1f77b4; stroke-width: 2"/>
    <path d="M 212.638724 133.308389 
L 245.156206 133.308389 
" clip-path="url(#pc7dcd5646c)" style="fill: none; stroke: #1f77b4; stroke-width: 2"/>
   </g>
   <g id="LineCollection_2">
    <path d="M 82.568794 129.292039 
L 115.086276 129.292039 
" clip-path="url(#pc7dcd5646c)" style="fill: none; stroke: #d62728; stroke-width: 2"/>
    <path d="M 212.638724 130.629516 
L 245.156206 130.629516 
" clip-path="url(#pc7dcd5646c)" style="fill: none; stroke: #d62728; stroke-width: 2"/>
   </g>
   <g id="LineCollection_3">
    <path d="M 62.407955 190.126376 
L 135.247115 190.126376 
" clip-path="url(#pc7dcd5646c)" style="fill: none; stroke: #2ca02c"/>
   </g>
   <g id="LineCollection_4">
    <path d="M 62.407955 165.630347 
L 135.247115 165.630347 
" clip-path="url(#pc7dcd5646c)" style="fill: none; stroke: #2ca02c"/>
   </g>
   <g id="LineCollection_5">
    <path d="M 62.407955 97.873259 
L 135.247115 97.873259 
" clip-path="url(#pc7dcd5646c)" style="fill: none; stroke: #2ca02c"/>
   </g>
   <g id="LineCollection_6">
    <path d="M 62.407955 61.687072 
L 135.247115 61.687072 
" clip-path="url(#pc7dcd5646c)" style="fill: none; stroke: #2ca02c"/>
   </g>
   <g id="LineCollection_7">
    <path d="M 192.477885 183.01949 
L 265.317045 183.01949 
" clip-path="url(#pc7dcd5646c)" style="fill: none; stroke: #2ca02c"/>
   </g>
   <g id="LineCollection_8">
    <path d="M 192.477885 155.743477 
L 265.317045 155.743477 
" clip-path="url(#pc7dcd5646c)" style="fill: none; stroke: #2ca02c"/>
   </g>
   <g id="LineCollection_9">
    <path d="M 192.477885 107.628533 
L 265.317045 107.628533 
" clip-path="url(#pc7dcd5646c)" style="fill: none; stroke: #2ca02c"/>
   </g>
   <g id="LineCollection_10">
    <path d="M 192.477885 98.002667 
L 265.317045 98.002667 
" clip-path="url(#pc7dcd5646c)" style="fill: none; stroke: #2ca02c"/>
   </g>
   <g id="patch_3">
    <path d="M 52.2625 243.86625 
L 52.2625 22.10625 
" style="fill: none; stroke: #000000; stroke-width: 0.8; stroke-linejoin: miter; stroke-linecap: square"/>
   </g>
   <g id="patch_4">
    <path d="M 275.4625 243.86625 
L 275.4625 22.10625 
" style="fill: none; stroke: #000000; stroke-width: 0.8; stroke-linejoin: miter; stroke-linecap: square"/>
   </g>
   <g id="patch_5">
    <path d="M 52.2625 243.86625 
L 275.4625 243.86625 
" style="fill: none; stroke: #000000; stroke-width: 0.8; stroke-linejoin: miter; stroke-linecap: square"/>
   </g>
   <g id="patch_6">
    <path d="M 52.2625 22.10625 
L 275.4625 22.10625 
" style="fill: none; stroke: #000000; stroke-width: 0.8; stroke-linejoin: miter; stroke-linecap: square"/>
   </g>
   <g id="text_12">
    <!-- Spearman_HRV -->
    <g transform="translate(117.734688 16.10625) scale(0.12 -0.12)">
     <use xlink:href="#DejaVuSans-53"/>
     <use xlink:href="#DejaVuSans-70" transform="translate(63.476562 0)"/>
     <use xlink:href="#DejaVuSans-65" transform="translate(126.953125 0)"/>
     <use xlink:href="#DejaVuSans-61" transform="translate(188.476562 0)"/>
     <use xlink:href="#DejaVuSans-72" transform="translate(249.755859 0)"/>
     <use xlink:href="#DejaVuSans-6d" transform="translate(289.119141 0)"/>
     <use xlink:href="#DejaVuSans-61" transform="translate(386.53125 0)"/>
     <use xlink:href="#DejaVuSans-6e" transform="translate(447.810547 0)"/>
     <use xlink:href="#DejaVuSans-5f" transform="translate(511.189453 0)"/>
     <use xlink:href="#DejaVuSans-48" transform="translate(561.189453 0)"/>
     <use xlink:href="#DejaVuSans-52" transform="translate(636.384766 0)"/>
     <use xlink:href="#DejaVuSans-56" transform="translate(700.367188 0)"/>
    </g>
   </g>
   <g id="legend_1">
    <g id="line2d_19">
     <path d="M 126.105469 199.930312 
L 136.105469 199.930312 
L 146.105469 199.930312 
" style="fill: none; stroke: #1f77b4; stroke-width: 2; stroke-linecap: square"/>
    </g>
    <g id="text_13">
     <!-- Mean -->
     <g transform="translate(154.105469 203.430312) scale(0.1 -0.1)">
      <defs>
       <path id="DejaVuSans-4d" d="M 628 4666 
L 1569 4666 
L 2759 1491 
L 3956 4666 
L 4897 4666 
L 4897 0 
L 4281 0 
L 4281 4097 
L 3078 897 
L 2444 897 
L 1241 4097 
L 1241 0 
L 628 0 
L 628 4666 
z
" transform="scale(0.015625)"/>
      </defs>
      <use xlink:href="#DejaVuSans-4d"/>
      <use xlink:href="#DejaVuSans-65" transform="translate(86.279297 0)"/>
      <use xlink:href="#DejaVuSans-61" transform="translate(147.802734 0)"/>
      <use xlink:href="#DejaVuSans-6e" transform="translate(209.082031 0)"/>
     </g>
    </g>
    <g id="line2d_20">
     <path d="M 126.105469 214.608437 
L 136.105469 214.608437 
L 146.105469 214.608437 
" style="fill: none; stroke: #d62728; stroke-width: 2; stroke-linecap: square"/>
    </g>
    <g id="text_14">
     <!-- Median -->
     <g transform="translate(154.105469 218.108437) scale(0.1 -0.1)">
      <defs>
       <path id="DejaVuSans-64" d="M 2906 2969 
L 2906 4863 
L 3481 4863 
L 3481 0 
L 2906 0 
L 2906 525 
Q 2725 213 2448 61 
Q 2172 -91 1784 -91 
Q 1150 -91 751 415 
Q 353 922 353 1747 
Q 353 2572 751 3078 
Q 1150 3584 1784 3584 
Q 2172 3584 2448 3432 
Q 2725 3281 2906 2969 
z
M 947 1747 
Q 947 1113 1208 752 
Q 1469 391 1925 391 
Q 2381 391 2643 752 
Q 2906 1113 2906 1747 
Q 2906 2381 2643 2742 
Q 2381 3103 1925 3103 
Q 1469 3103 1208 2742 
Q 947 2381 947 1747 
z
" transform="scale(0.015625)"/>
      </defs>
      <use xlink:href="#DejaVuSans-4d"/>
      <use xlink:href="#DejaVuSans-65" transform="translate(86.279297 0)"/>
      <use xlink:href="#DejaVuSans-64" transform="translate(147.802734 0)"/>
      <use xlink:href="#DejaVuSans-69" transform="translate(211.279297 0)"/>
      <use xlink:href="#DejaVuSans-61" transform="translate(239.0625 0)"/>
      <use xlink:href="#DejaVuSans-6e" transform="translate(300.341797 0)"/>
     </g>
    </g>
    <g id="line2d_21">
     <path d="M 126.105469 229.286562 
L 136.105469 229.286562 
L 146.105469 229.286562 
" style="fill: none; stroke: #2ca02c; stroke-linecap: square"/>
    </g>
    <g id="text_15">
     <!-- Quantiles -->
     <g transform="translate(154.105469 232.786562) scale(0.1 -0.1)">
      <defs>
       <path id="DejaVuSans-51" d="M 2522 4238 
Q 1834 4238 1429 3725 
Q 1025 3213 1025 2328 
Q 1025 1447 1429 934 
Q 1834 422 2522 422 
Q 3209 422 3611 934 
Q 4013 1447 4013 2328 
Q 4013 3213 3611 3725 
Q 3209 4238 2522 4238 
z
M 3406 84 
L 4238 -825 
L 3475 -825 
L 2784 -78 
Q 2681 -84 2626 -87 
Q 2572 -91 2522 -91 
Q 1538 -91 948 567 
Q 359 1225 359 2328 
Q 359 3434 948 4092 
Q 1538 4750 2522 4750 
Q 3503 4750 4090 4092 
Q 4678 3434 4678 2328 
Q 4678 1516 4351 937 
Q 4025 359 3406 84 
z
" transform="scale(0.015625)"/>
       <path id="DejaVuSans-75" d="M 544 1381 
L 544 3500 
L 1119 3500 
L 1119 1403 
Q 1119 906 1312 657 
Q 1506 409 1894 409 
Q 2359 409 2629 706 
Q 2900 1003 2900 1516 
L 2900 3500 
L 3475 3500 
L 3475 0 
L 2900 0 
L 2900 538 
Q 2691 219 2414 64 
Q 2138 -91 1772 -91 
Q 1169 -91 856 284 
Q 544 659 544 1381 
z
M 1991 3584 
L 1991 3584 
z
" transform="scale(0.015625)"/>
       <path id="DejaVuSans-73" d="M 2834 3397 
L 2834 2853 
Q 2591 2978 2328 3040 
Q 2066 3103 1784 3103 
Q 1356 3103 1142 2972 
Q 928 2841 928 2578 
Q 928 2378 1081 2264 
Q 1234 2150 1697 2047 
L 1894 2003 
Q 2506 1872 2764 1633 
Q 3022 1394 3022 966 
Q 3022 478 2636 193 
Q 2250 -91 1575 -91 
Q 1294 -91 989 -36 
Q 684 19 347 128 
L 347 722 
Q 666 556 975 473 
Q 1284 391 1588 391 
Q 1994 391 2212 530 
Q 2431 669 2431 922 
Q 2431 1156 2273 1281 
Q 2116 1406 1581 1522 
L 1381 1569 
Q 847 1681 609 1914 
Q 372 2147 372 2553 
Q 372 3047 722 3315 
Q 1072 3584 1716 3584 
Q 2034 3584 2315 3537 
Q 2597 3491 2834 3397 
z
" transform="scale(0.015625)"/>
      </defs>
      <use xlink:href="#DejaVuSans-51"/>
      <use xlink:href="#DejaVuSans-75" transform="translate(78.710938 0)"/>
      <use xlink:href="#DejaVuSans-61" transform="translate(142.089844 0)"/>
      <use xlink:href="#DejaVuSans-6e" transform="translate(203.369141 0)"/>
      <use xlink:href="#DejaVuSans-74" transform="translate(266.748047 0)"/>
      <use xlink:href="#DejaVuSans-69" transform="translate(305.957031 0)"/>
      <use xlink:href="#DejaVuSans-6c" transform="translate(333.740234 0)"/>
      <use xlink:href="#DejaVuSans-65" transform="translate(361.523438 0)"/>
      <use xlink:href="#DejaVuSans-73" transform="translate(423.046875 0)"/>
     </g>
    </g>
   </g>
  </g>
 </g>
 <defs>
  <clipPath id="pc7dcd5646c">
   <rect x="52.2625" y="22.10625" width="223.2" height="221.76"/>
  </clipPath>
 </defs>
</svg>
