<?xml version="1.0" encoding="utf-8" standalone="no"?>
<!DOCTYPE svg PUBLIC "-//W3C//DTD SVG 1.1//EN"
  "http://www.w3.org/Graphics/SVG/1.1/DTD/svg11.dtd">
<svg xmlns:xlink="http://www.w3.org/1999/xlink" width="505.760937pt" height="279.432187pt" viewBox="0 0 505.760937 279.432187" xmlns="http://www.w3.org/2000/svg" version="1.1">
 <metadata>
  <rdf:RDF xmlns:dc="http://purl.org/dc/elements/1.1/" xmlns:cc="http://creativecommons.org/ns#" xmlns:rdf="http://www.w3.org/1999/02/22-rdf-syntax-ns#">
   <cc:Work>
    <dc:type rdf:resource="http://purl.org/dc/dcmitype/StillImage"/>
    <dc:date>2026-04-20T14:42:11.234824</dc:date>
    <dc:format>image/svg+xml</dc:format>
    <dc:creator>
     <cc:Agent>
      <dc:title>Matplotlib v3.10.8, https://matplotlib.org/</dc:title>
     </cc:Agent>
    </dc:creator>
   </cc:Work>
  </rdf:RDF>
 </metadata>
 <defs>
  <style type="text/css">*{stroke-linejoin: round; stroke-linecap: butt}</style>
 </defs>
 <g id="figure_1">
  <g id="patch_1">
   <path d="M 0 279.432187 
L 505.760937 279.432187 
L 505.760937 0 
L 0 0 
z
" style="fill: #ffffff"/>
  </g>
  <g id="axes_1">
   <g id="patch_2">
    <path d="M 52.160938 244.078125 
L 498.560937 244.078125 
L 498.560937 22.318125 
L 52.160938 22.318125 
z
" style="fill: #ffffff"/>
   </g>
   <g id="FillBetweenPolyCollection_1">
    <path d="M 151.636186 233.998125 
L 138.945829 233.998125 
L 138.797724 232.136867 
L 138.667327 230.275609 
L 138.546495 228.414351 
L 138.425334 226.553093 
L 138.292516 224.691835 
L 138.135682 222.830577 
L 137.941903 220.969319 
L 137.698173 219.108061 
L 137.391903 217.246803 
L 137.011388 215.385545 
L 136.546216 213.524287 
L 135.9876 211.663029 
L 135.328606 209.801771 
L 134.564272 207.940513 
L 133.691607 206.079255 
L 132.709487 204.217997 
L 131.618449 202.356739 
L 130.420415 200.495481 
L 129.118373 198.634223 
L 127.716042 196.772965 
L 126.217573 194.911707 
L 124.627298 193.050449 
L 122.949582 191.189191 
L 121.188776 189.327933 
L 119.349306 187.466674 
L 117.435888 185.605416 
L 115.453848 183.744158 
L 113.409546 181.8829 
L 111.310824 180.021642 
L 109.167477 178.160384 
L 106.991646 176.299126 
L 104.798113 174.437868 
L 102.604421 172.57661 
L 100.430787 170.715352 
L 98.299787 168.854094 
L 96.235787 166.992836 
L 94.264145 165.131578 
L 92.410216 163.27032 
L 90.698213 161.409062 
L 89.150003 159.547804 
L 87.783902 157.686546 
L 86.613589 155.825288 
L 85.647194 153.96403 
L 84.886656 152.102772 
L 84.327402 150.241514 
L 83.958375 148.380256 
L 83.762443 146.518998 
L 83.717138 144.65774 
L 83.795706 142.796482 
L 83.968395 140.935224 
L 84.203883 139.073966 
L 84.470769 137.212708 
L 84.739024 135.35145 
L 84.981316 133.490192 
L 85.174119 131.628934 
L 85.298577 129.767676 
L 85.341059 127.906418 
L 85.293417 126.04516 
L 85.152942 124.183902 
L 84.922075 122.322644 
L 84.6079 120.461386 
L 84.221485 118.600128 
L 83.77715 116.73887 
L 83.291695 114.877612 
L 82.783668 113.016354 
L 82.272693 111.155096 
L 81.778899 109.293838 
L 81.322449 107.43258 
L 80.923169 105.571322 
L 80.60027 103.710064 
L 80.372119 101.848806 
L 80.256042 99.987548 
L 80.268139 98.126289 
L 80.423062 96.265031 
L 80.733769 94.403773 
L 81.211229 92.542515 
L 81.864101 90.681257 
L 82.69839 88.819999 
L 83.717124 86.958741 
L 84.920073 85.097483 
L 86.303553 83.236225 
L 87.860343 81.374967 
L 89.579743 79.513709 
L 91.447787 77.652451 
L 93.447614 75.791193 
L 95.559982 73.929935 
L 97.763902 72.068677 
L 100.037347 70.207419 
L 102.358005 68.346161 
L 104.70401 66.484903 
L 107.054613 64.623645 
L 109.390749 62.762387 
L 111.695467 60.901129 
L 113.954206 59.039871 
L 116.154902 57.178613 
L 118.287948 55.317355 
L 120.346022 53.456097 
L 122.323811 51.594839 
L 124.217669 49.733581 
L 166.364346 49.733581 
L 166.364346 49.733581 
L 168.258204 51.594839 
L 170.235992 53.456097 
L 172.294067 55.317355 
L 174.427113 57.178613 
L 176.627808 59.039871 
L 178.886547 60.901129 
L 181.191266 62.762387 
L 183.527402 64.623645 
L 185.878005 66.484903 
L 188.224009 68.346161 
L 190.544668 70.207419 
L 192.818113 72.068677 
L 195.022032 73.929935 
L 197.134401 75.791193 
L 199.134228 77.652451 
L 201.002272 79.513709 
L 202.721671 81.374967 
L 204.278461 83.236225 
L 205.661942 85.097483 
L 206.864891 86.958741 
L 207.883625 88.819999 
L 208.717914 90.681257 
L 209.370786 92.542515 
L 209.848246 94.403773 
L 210.158952 96.265031 
L 210.313875 98.126289 
L 210.325972 99.987548 
L 210.209896 101.848806 
L 209.981745 103.710064 
L 209.658846 105.571322 
L 209.259566 107.43258 
L 208.803116 109.293838 
L 208.309322 111.155096 
L 207.798347 113.016354 
L 207.29032 114.877612 
L 206.804865 116.73887 
L 206.36053 118.600128 
L 205.974115 120.461386 
L 205.659939 122.322644 
L 205.429073 124.183902 
L 205.288598 126.04516 
L 205.240955 127.906418 
L 205.283438 129.767676 
L 205.407896 131.628934 
L 205.600699 133.490192 
L 205.84299 135.35145 
L 206.111246 137.212708 
L 206.378132 139.073966 
L 206.613619 140.935224 
L 206.786308 142.796482 
L 206.864877 144.65774 
L 206.819572 146.518998 
L 206.62364 148.380256 
L 206.254613 150.241514 
L 205.695358 152.102772 
L 204.934821 153.96403 
L 203.968426 155.825288 
L 202.798113 157.686546 
L 201.432012 159.547804 
L 199.883801 161.409062 
L 198.171799 163.27032 
L 196.31787 165.131578 
L 194.346228 166.992836 
L 192.282227 168.854094 
L 190.151228 170.715352 
L 187.977594 172.57661 
L 185.783901 174.437868 
L 183.590368 176.299126 
L 181.414538 178.160384 
L 179.271191 180.021642 
L 177.172469 181.8829 
L 175.128166 183.744158 
L 173.146127 185.605416 
L 171.232708 187.466674 
L 169.393239 189.327933 
L 167.632432 191.189191 
L 165.954716 193.050449 
L 164.364442 194.911707 
L 162.865973 196.772965 
L 161.463642 198.634223 
L 160.161599 200.495481 
L 158.963565 202.356739 
L 157.872527 204.217997 
L 156.890408 206.079255 
L 156.017743 207.940513 
L 155.253409 209.801771 
L 154.594415 211.663029 
L 154.035799 213.524287 
L 153.570627 215.385545 
L 153.190112 217.246803 
L 152.883842 219.108061 
L 152.640112 220.969319 
L 152.446333 222.830577 
L 152.289499 224.691835 
L 152.15668 226.553093 
L 152.035519 228.414351 
L 151.914688 230.275609 
L 151.784291 232.136867 
L 151.636186 233.998125 
z
" clip-path="url(#p796df13bf1)" style="fill: #1f77b4; fill-opacity: 0.3"/>
   </g>
   <g id="FillBetweenPolyCollection_2">
    <path d="M 444.186174 149.962059 
L 366.675562 149.962059 
L 364.759257 148.774545 
L 362.906067 147.58703 
L 361.126047 146.399516 
L 359.427642 145.212001 
L 357.817543 144.024487 
L 356.300582 142.836972 
L 354.879693 141.649458 
L 353.555941 140.461943 
L 352.328599 139.274429 
L 351.195292 138.086914 
L 350.152184 136.8994 
L 349.194211 135.711885 
L 348.315349 134.524371 
L 347.508902 133.336856 
L 346.767808 132.149342 
L 346.084944 130.961828 
L 345.453424 129.774313 
L 344.866875 128.586799 
L 344.319693 127.399284 
L 343.80726 126.21177 
L 343.326113 125.024255 
L 342.874076 123.836741 
L 342.450337 122.649226 
L 342.055469 121.461712 
L 341.691407 120.274197 
L 341.361364 119.086683 
L 341.069706 117.899168 
L 340.821779 116.711654 
L 340.623696 115.524139 
L 340.482097 114.336625 
L 340.403876 113.14911 
L 340.395903 111.961596 
L 340.464725 110.774081 
L 340.616284 109.586567 
L 340.855637 108.399052 
L 341.186698 107.211538 
L 341.612021 106.024023 
L 342.132603 104.836509 
L 342.747754 103.648994 
L 343.455003 102.46148 
L 344.250064 101.273965 
L 345.126869 100.086451 
L 346.077646 98.898936 
L 347.093063 97.711422 
L 348.162422 96.523907 
L 349.273906 95.336393 
L 350.414854 94.148878 
L 351.572083 92.961364 
L 352.732217 91.773849 
L 353.882031 90.586335 
L 355.008794 89.39882 
L 356.100595 88.211306 
L 357.146644 87.023791 
L 358.137539 85.836277 
L 359.065489 84.648762 
L 359.924478 83.461248 
L 360.710381 82.273734 
L 361.421015 81.086219 
L 362.056126 79.898705 
L 362.617323 78.71119 
L 363.107952 77.523676 
L 363.532916 76.336161 
L 363.898465 75.148647 
L 364.21194 73.961132 
L 364.481507 72.773618 
L 364.715869 71.586103 
L 364.923989 70.398589 
L 365.114817 69.211074 
L 365.297043 68.02356 
L 365.478876 66.836045 
L 365.667864 65.648531 
L 365.870755 64.461016 
L 366.093407 63.273502 
L 366.340733 62.085987 
L 366.616705 60.898473 
L 366.924388 59.710958 
L 367.266014 58.523444 
L 367.643082 57.335929 
L 368.056478 56.148415 
L 368.506608 54.9609 
L 368.993528 53.773386 
L 369.517076 52.585871 
L 370.076982 51.398357 
L 370.672961 50.210842 
L 371.30478 49.023328 
L 371.972302 47.835813 
L 372.675486 46.648299 
L 373.41438 45.460784 
L 374.189065 44.27327 
L 374.999597 43.085755 
L 375.845915 41.898241 
L 376.727754 40.710726 
L 377.644544 39.523212 
L 378.595317 38.335697 
L 379.578622 37.148183 
L 380.592458 35.960668 
L 381.634224 34.773154 
L 382.7007 33.585639 
L 383.788043 32.398125 
L 427.073692 32.398125 
L 427.073692 32.398125 
L 428.161036 33.585639 
L 429.227511 34.773154 
L 430.269277 35.960668 
L 431.283113 37.148183 
L 432.266418 38.335697 
L 433.217191 39.523212 
L 434.133982 40.710726 
L 435.015821 41.898241 
L 435.862139 43.085755 
L 436.67267 44.27327 
L 437.447355 45.460784 
L 438.186249 46.648299 
L 438.889434 47.835813 
L 439.556955 49.023328 
L 440.188775 50.210842 
L 440.784753 51.398357 
L 441.344659 52.585871 
L 441.868207 53.773386 
L 442.355128 54.9609 
L 442.805257 56.148415 
L 443.218653 57.335929 
L 443.595721 58.523444 
L 443.937347 59.710958 
L 444.24503 60.898473 
L 444.521002 62.085987 
L 444.768328 63.273502 
L 444.99098 64.461016 
L 445.193872 65.648531 
L 445.382859 66.836045 
L 445.564692 68.02356 
L 445.746918 69.211074 
L 445.937746 70.398589 
L 446.145866 71.586103 
L 446.380228 72.773618 
L 446.649795 73.961132 
L 446.96327 75.148647 
L 447.328819 76.336161 
L 447.753783 77.523676 
L 448.244412 78.71119 
L 448.805609 79.898705 
L 449.440721 81.086219 
L 450.151354 82.273734 
L 450.937257 83.461248 
L 451.796246 84.648762 
L 452.724196 85.836277 
L 453.715092 87.023791 
L 454.761141 88.211306 
L 455.852941 89.39882 
L 456.979704 90.586335 
L 458.129518 91.773849 
L 459.289652 92.961364 
L 460.446881 94.148878 
L 461.58783 95.336393 
L 462.699313 96.523907 
L 463.768672 97.711422 
L 464.784089 98.898936 
L 465.734866 100.086451 
L 466.611671 101.273965 
L 467.406733 102.46148 
L 468.113981 103.648994 
L 468.729132 104.836509 
L 469.249714 106.024023 
L 469.675037 107.211538 
L 470.006099 108.399052 
L 470.245451 109.586567 
L 470.39701 110.774081 
L 470.465833 111.961596 
L 470.457859 113.14911 
L 470.379639 114.336625 
L 470.238039 115.524139 
L 470.039957 116.711654 
L 469.792029 117.899168 
L 469.500372 119.086683 
L 469.170329 120.274197 
L 468.806266 121.461712 
L 468.411399 122.649226 
L 467.987659 123.836741 
L 467.535622 125.024255 
L 467.054475 126.21177 
L 466.542042 127.399284 
L 465.994861 128.586799 
L 465.408311 129.774313 
L 464.776791 130.961828 
L 464.093927 132.149342 
L 463.352833 133.336856 
L 462.546386 134.524371 
L 461.667524 135.711885 
L 460.709551 136.8994 
L 459.666443 138.086914 
L 458.533136 139.274429 
L 457.305795 140.461943 
L 455.982042 141.649458 
L 454.561154 142.836972 
L 453.044192 144.024487 
L 451.434093 145.212001 
L 449.735689 146.399516 
L 447.955668 147.58703 
L 446.102478 148.774545 
L 444.186174 149.962059 
z
" clip-path="url(#p796df13bf1)" style="fill: #1f77b4; fill-opacity: 0.3"/>
   </g>
   <g id="matplotlib.axis_1">
    <g id="xtick_1">
     <g id="line2d_1">
      <defs>
       <path id="m87d8c0682f" d="M 0 0 
L 0 3.5 
" style="stroke: #000000; stroke-width: 0.8"/>
      </defs>
      <g>
       <use xlink:href="#m87d8c0682f" x="145.291007" y="244.078125" style="stroke: #000000; stroke-width: 0.8"/>
      </g>
     </g>
     <g id="text_1">
      <!-- eye_tracking -->
      <g transform="translate(113.222257 258.676562) scale(0.1 -0.1)">
       <defs>
        <path id="DejaVuSans-65" d="M 3597 1894 
L 3597 1613 
L 953 1613 
Q 991 1019 1311 708 
Q 1631 397 2203 397 
Q 2534 397 2845 478 
Q 3156 559 3463 722 
L 3463 178 
Q 3153 47 2828 -22 
Q 2503 -91 2169 -91 
Q 1331 -91 842 396 
Q 353 884 353 1716 
Q 353 2575 817 3079 
Q 1281 3584 2069 3584 
Q 2775 3584 3186 3129 
Q 3597 2675 3597 1894 
z
M 3022 2063 
Q 3016 2534 2758 2815 
Q 2500 3097 2075 3097 
Q 1594 3097 1305 2825 
Q 1016 2553 972 2059 
L 3022 2063 
z
" transform="scale(0.015625)"/>
        <path id="DejaVuSans-79" d="M 2059 -325 
Q 1816 -950 1584 -1140 
Q 1353 -1331 966 -1331 
L 506 -1331 
L 506 -850 
L 844 -850 
Q 1081 -850 1212 -737 
Q 1344 -625 1503 -206 
L 1606 56 
L 191 3500 
L 800 3500 
L 1894 763 
L 2988 3500 
L 3597 3500 
L 2059 -325 
z
" transform="scale(0.015625)"/>
        <path id="DejaVuSans-5f" d="M 3263 -1063 
L 3263 -1509 
L -63 -1509 
L -63 -1063 
L 3263 -1063 
z
" transform="scale(0.015625)"/>
        <path id="DejaVuSans-74" d="M 1172 4494 
L 1172 3500 
L 2356 3500 
L 2356 3053 
L 1172 3053 
L 1172 1153 
Q 1172 725 1289 603 
Q 1406 481 1766 481 
L 2356 481 
L 2356 0 
L 1766 0 
Q 1100 0 847 248 
Q 594 497 594 1153 
L 594 3053 
L 172 3053 
L 172 3500 
L 594 3500 
L 594 4494 
L 1172 4494 
z
" transform="scale(0.015625)"/>
        <path id="DejaVuSans-72" d="M 2631 2963 
Q 2534 3019 2420 3045 
Q 2306 3072 2169 3072 
Q 1681 3072 1420 2755 
Q 1159 2438 1159 1844 
L 1159 0 
L 581 0 
L 581 3500 
L 1159 3500 
L 1159 2956 
Q 1341 3275 1631 3429 
Q 1922 3584 2338 3584 
Q 2397 3584 2469 3576 
Q 2541 3569 2628 3553 
L 2631 2963 
z
" transform="scale(0.015625)"/>
        <path id="DejaVuSans-61" d="M 2194 1759 
Q 1497 1759 1228 1600 
Q 959 1441 959 1056 
Q 959 750 1161 570 
Q 1363 391 1709 391 
Q 2188 391 2477 730 
Q 2766 1069 2766 1631 
L 2766 1759 
L 2194 1759 
z
M 3341 1997 
L 3341 0 
L 2766 0 
L 2766 531 
Q 2569 213 2275 61 
Q 1981 -91 1556 -91 
Q 1019 -91 701 211 
Q 384 513 384 1019 
Q 384 1609 779 1909 
Q 1175 2209 1959 2209 
L 2766 2209 
L 2766 2266 
Q 2766 2663 2505 2880 
Q 2244 3097 1772 3097 
Q 1472 3097 1187 3025 
Q 903 2953 641 2809 
L 641 3341 
Q 956 3463 1253 3523 
Q 1550 3584 1831 3584 
Q 2591 3584 2966 3190 
Q 3341 2797 3341 1997 
z
" transform="scale(0.015625)"/>
        <path id="DejaVuSans-63" d="M 3122 3366 
L 3122 2828 
Q 2878 2963 2633 3030 
Q 2388 3097 2138 3097 
Q 1578 3097 1268 2742 
Q 959 2388 959 1747 
Q 959 1106 1268 751 
Q 1578 397 2138 397 
Q 2388 397 2633 464 
Q 2878 531 3122 666 
L 3122 134 
Q 2881 22 2623 -34 
Q 2366 -91 2075 -91 
Q 1284 -91 818 406 
Q 353 903 353 1747 
Q 353 2603 823 3093 
Q 1294 3584 2113 3584 
Q 2378 3584 2631 3529 
Q 2884 3475 3122 3366 
z
" transform="scale(0.015625)"/>
        <path id="DejaVuSans-6b" d="M 581 4863 
L 1159 4863 
L 1159 1991 
L 2875 3500 
L 3609 3500 
L 1753 1863 
L 3688 0 
L 2938 0 
L 1159 1709 
L 1159 0 
L 581 0 
L 581 4863 
z
" transform="scale(0.015625)"/>
        <path id="DejaVuSans-69" d="M 603 3500 
L 1178 3500 
L 1178 0 
L 603 0 
L 603 3500 
z
M 603 4863 
L 1178 4863 
L 1178 4134 
L 603 4134 
L 603 4863 
z
" transform="scale(0.015625)"/>
        <path id="DejaVuSans-6e" d="M 3513 2113 
L 3513 0 
L 2938 0 
L 2938 2094 
Q 2938 2591 2744 2837 
Q 2550 3084 2163 3084 
Q 1697 3084 1428 2787 
Q 1159 2491 1159 1978 
L 1159 0 
L 581 0 
L 581 3500 
L 1159 3500 
L 1159 2956 
Q 1366 3272 1645 3428 
Q 1925 3584 2291 3584 
Q 2894 3584 3203 3211 
Q 3513 2838 3513 2113 
z
" transform="scale(0.015625)"/>
        <path id="DejaVuSans-67" d="M 2906 1791 
Q 2906 2416 2648 2759 
Q 2391 3103 1925 3103 
Q 1463 3103 1205 2759 
Q 947 2416 947 1791 
Q 947 1169 1205 825 
Q 1463 481 1925 481 
Q 2391 481 2648 825 
Q 2906 1169 2906 1791 
z
M 3481 434 
Q 3481 -459 3084 -895 
Q 2688 -1331 1869 -1331 
Q 1566 -1331 1297 -1286 
Q 1028 -1241 775 -1147 
L 775 -588 
Q 1028 -725 1275 -790 
Q 1522 -856 1778 -856 
Q 2344 -856 2625 -561 
Q 2906 -266 2906 331 
L 2906 616 
Q 2728 306 2450 153 
Q 2172 0 1784 0 
Q 1141 0 747 490 
Q 353 981 353 1791 
Q 353 2603 747 3093 
Q 1141 3584 1784 3584 
Q 2172 3584 2450 3431 
Q 2728 3278 2906 2969 
L 2906 3500 
L 3481 3500 
L 3481 434 
z
" transform="scale(0.015625)"/>
       </defs>
       <use xlink:href="#DejaVuSans-65"/>
       <use xlink:href="#DejaVuSans-79" transform="translate(61.523438 0)"/>
       <use xlink:href="#DejaVuSans-65" transform="translate(120.703125 0)"/>
       <use xlink:href="#DejaVuSans-5f" transform="translate(182.226562 0)"/>
       <use xlink:href="#DejaVuSans-74" transform="translate(232.226562 0)"/>
       <use xlink:href="#DejaVuSans-72" transform="translate(271.435547 0)"/>
       <use xlink:href="#DejaVuSans-61" transform="translate(312.548828 0)"/>
       <use xlink:href="#DejaVuSans-63" transform="translate(373.828125 0)"/>
       <use xlink:href="#DejaVuSans-6b" transform="translate(428.808594 0)"/>
       <use xlink:href="#DejaVuSans-69" transform="translate(486.71875 0)"/>
       <use xlink:href="#DejaVuSans-6e" transform="translate(514.501953 0)"/>
       <use xlink:href="#DejaVuSans-67" transform="translate(577.880859 0)"/>
      </g>
      <!-- Single -->
      <g transform="translate(129.919132 270.1525) scale(0.1 -0.1)">
       <defs>
        <path id="DejaVuSans-53" d="M 3425 4513 
L 3425 3897 
Q 3066 4069 2747 4153 
Q 2428 4238 2131 4238 
Q 1616 4238 1336 4038 
Q 1056 3838 1056 3469 
Q 1056 3159 1242 3001 
Q 1428 2844 1947 2747 
L 2328 2669 
Q 3034 2534 3370 2195 
Q 3706 1856 3706 1288 
Q 3706 609 3251 259 
Q 2797 -91 1919 -91 
Q 1588 -91 1214 -16 
Q 841 59 441 206 
L 441 856 
Q 825 641 1194 531 
Q 1563 422 1919 422 
Q 2459 422 2753 634 
Q 3047 847 3047 1241 
Q 3047 1584 2836 1778 
Q 2625 1972 2144 2069 
L 1759 2144 
Q 1053 2284 737 2584 
Q 422 2884 422 3419 
Q 422 4038 858 4394 
Q 1294 4750 2059 4750 
Q 2388 4750 2728 4690 
Q 3069 4631 3425 4513 
z
" transform="scale(0.015625)"/>
        <path id="DejaVuSans-6c" d="M 603 4863 
L 1178 4863 
L 1178 0 
L 603 0 
L 603 4863 
z
" transform="scale(0.015625)"/>
       </defs>
       <use xlink:href="#DejaVuSans-53"/>
       <use xlink:href="#DejaVuSans-69" transform="translate(63.476562 0)"/>
       <use xlink:href="#DejaVuSans-6e" transform="translate(91.259766 0)"/>
       <use xlink:href="#DejaVuSans-67" transform="translate(154.638672 0)"/>
       <use xlink:href="#DejaVuSans-6c" transform="translate(218.115234 0)"/>
       <use xlink:href="#DejaVuSans-65" transform="translate(245.898438 0)"/>
      </g>
     </g>
    </g>
    <g id="xtick_2">
     <g id="line2d_2">
      <g>
       <use xlink:href="#m87d8c0682f" x="405.430868" y="244.078125" style="stroke: #000000; stroke-width: 0.8"/>
      </g>
     </g>
     <g id="text_2">
      <!-- face_tracking -->
      <g transform="translate(371.824618 258.676562) scale(0.1 -0.1)">
       <defs>
        <path id="DejaVuSans-66" d="M 2375 4863 
L 2375 4384 
L 1825 4384 
Q 1516 4384 1395 4259 
Q 1275 4134 1275 3809 
L 1275 3500 
L 2222 3500 
L 2222 3053 
L 1275 3053 
L 1275 0 
L 697 0 
L 697 3053 
L 147 3053 
L 147 3500 
L 697 3500 
L 697 3744 
Q 697 4328 969 4595 
Q 1241 4863 1831 4863 
L 2375 4863 
z
" transform="scale(0.015625)"/>
       </defs>
       <use xlink:href="#DejaVuSans-66"/>
       <use xlink:href="#DejaVuSans-61" transform="translate(35.205078 0)"/>
       <use xlink:href="#DejaVuSans-63" transform="translate(96.484375 0)"/>
       <use xlink:href="#DejaVuSans-65" transform="translate(151.464844 0)"/>
       <use xlink:href="#DejaVuSans-5f" transform="translate(212.988281 0)"/>
       <use xlink:href="#DejaVuSans-74" transform="translate(262.988281 0)"/>
       <use xlink:href="#DejaVuSans-72" transform="translate(302.197266 0)"/>
       <use xlink:href="#DejaVuSans-61" transform="translate(343.310547 0)"/>
       <use xlink:href="#DejaVuSans-63" transform="translate(404.589844 0)"/>
       <use xlink:href="#DejaVuSans-6b" transform="translate(459.570312 0)"/>
       <use xlink:href="#DejaVuSans-69" transform="translate(517.480469 0)"/>
       <use xlink:href="#DejaVuSans-6e" transform="translate(545.263672 0)"/>
       <use xlink:href="#DejaVuSans-67" transform="translate(608.642578 0)"/>
      </g>
      <!-- Single -->
      <g transform="translate(390.058993 270.1525) scale(0.1 -0.1)">
       <use xlink:href="#DejaVuSans-53"/>
       <use xlink:href="#DejaVuSans-69" transform="translate(63.476562 0)"/>
       <use xlink:href="#DejaVuSans-6e" transform="translate(91.259766 0)"/>
       <use xlink:href="#DejaVuSans-67" transform="translate(154.638672 0)"/>
       <use xlink:href="#DejaVuSans-6c" transform="translate(218.115234 0)"/>
       <use xlink:href="#DejaVuSans-65" transform="translate(245.898438 0)"/>
      </g>
     </g>
    </g>
   </g>
   <g id="matplotlib.axis_2">
    <g id="ytick_1">
     <g id="line2d_3">
      <path d="M 52.160938 209.563237 
L 498.560937 209.563237 
" clip-path="url(#p796df13bf1)" style="fill: none; stroke: #b0b0b0; stroke-opacity: 0.3; stroke-width: 0.8; stroke-linecap: square"/>
     </g>
     <g id="line2d_4">
      <defs>
       <path id="m9555cde6b6" d="M 0 0 
L -3.5 0 
" style="stroke: #000000; stroke-width: 0.8"/>
      </defs>
      <g>
       <use xlink:href="#m9555cde6b6" x="52.160938" y="209.563237" style="stroke: #000000; stroke-width: 0.8"/>
      </g>
     </g>
     <g id="text_3">
      <!-- −0.4 -->
      <g transform="translate(20.878125 213.362456) scale(0.1 -0.1)">
       <defs>
        <path id="DejaVuSans-2212" d="M 678 2272 
L 4684 2272 
L 4684 1741 
L 678 1741 
L 678 2272 
z
" transform="scale(0.015625)"/>
        <path id="DejaVuSans-30" d="M 2034 4250 
Q 1547 4250 1301 3770 
Q 1056 3291 1056 2328 
Q 1056 1369 1301 889 
Q 1547 409 2034 409 
Q 2525 409 2770 889 
Q 3016 1369 3016 2328 
Q 3016 3291 2770 3770 
Q 2525 4250 2034 4250 
z
M 2034 4750 
Q 2819 4750 3233 4129 
Q 3647 3509 3647 2328 
Q 3647 1150 3233 529 
Q 2819 -91 2034 -91 
Q 1250 -91 836 529 
Q 422 1150 422 2328 
Q 422 3509 836 4129 
Q 1250 4750 2034 4750 
z
" transform="scale(0.015625)"/>
        <path id="DejaVuSans-2e" d="M 684 794 
L 1344 794 
L 1344 0 
L 684 0 
L 684 794 
z
" transform="scale(0.015625)"/>
        <path id="DejaVuSans-34" d="M 2419 4116 
L 825 1625 
L 2419 1625 
L 2419 4116 
z
M 2253 4666 
L 3047 4666 
L 3047 1625 
L 3713 1625 
L 3713 1100 
L 3047 1100 
L 3047 0 
L 2419 0 
L 2419 1100 
L 313 1100 
L 313 1709 
L 2253 4666 
z
" transform="scale(0.015625)"/>
       </defs>
       <use xlink:href="#DejaVuSans-2212"/>
       <use xlink:href="#DejaVuSans-30" transform="translate(83.789062 0)"/>
       <use xlink:href="#DejaVuSans-2e" transform="translate(147.412109 0)"/>
       <use xlink:href="#DejaVuSans-34" transform="translate(179.199219 0)"/>
      </g>
     </g>
    </g>
    <g id="ytick_2">
     <g id="line2d_5">
      <path d="M 52.160938 167.619367 
L 498.560937 167.619367 
" clip-path="url(#p796df13bf1)" style="fill: none; stroke: #b0b0b0; stroke-opacity: 0.3; stroke-width: 0.8; stroke-linecap: square"/>
     </g>
     <g id="line2d_6">
      <g>
       <use xlink:href="#m9555cde6b6" x="52.160938" y="167.619367" style="stroke: #000000; stroke-width: 0.8"/>
      </g>
     </g>
     <g id="text_4">
      <!-- −0.2 -->
      <g transform="translate(20.878125 171.418586) scale(0.1 -0.1)">
       <defs>
        <path id="DejaVuSans-32" d="M 1228 531 
L 3431 531 
L 3431 0 
L 469 0 
L 469 531 
Q 828 903 1448 1529 
Q 2069 2156 2228 2338 
Q 2531 2678 2651 2914 
Q 2772 3150 2772 3378 
Q 2772 3750 2511 3984 
Q 2250 4219 1831 4219 
Q 1534 4219 1204 4116 
Q 875 4013 500 3803 
L 500 4441 
Q 881 4594 1212 4672 
Q 1544 4750 1819 4750 
Q 2544 4750 2975 4387 
Q 3406 4025 3406 3419 
Q 3406 3131 3298 2873 
Q 3191 2616 2906 2266 
Q 2828 2175 2409 1742 
Q 1991 1309 1228 531 
z
" transform="scale(0.015625)"/>
       </defs>
       <use xlink:href="#DejaVuSans-2212"/>
       <use xlink:href="#DejaVuSans-30" transform="translate(83.789062 0)"/>
       <use xlink:href="#DejaVuSans-2e" transform="translate(147.412109 0)"/>
       <use xlink:href="#DejaVuSans-32" transform="translate(179.199219 0)"/>
      </g>
     </g>
    </g>
    <g id="ytick_3">
     <g id="line2d_7">
      <path d="M 52.160938 125.675497 
L 498.560937 125.675497 
" clip-path="url(#p796df13bf1)" style="fill: none; stroke: #b0b0b0; stroke-opacity: 0.3; stroke-width: 0.8; stroke-linecap: square"/>
     </g>
     <g id="line2d_8">
      <g>
       <use xlink:href="#m9555cde6b6" x="52.160938" y="125.675497" style="stroke: #000000; stroke-width: 0.8"/>
      </g>
     </g>
     <g id="text_5">
      <!-- 0.0 -->
      <g transform="translate(29.257812 129.474716) scale(0.1 -0.1)">
       <use xlink:href="#DejaVuSans-30"/>
       <use xlink:href="#DejaVuSans-2e" transform="translate(63.623047 0)"/>
       <use xlink:href="#DejaVuSans-30" transform="translate(95.410156 0)"/>
      </g>
     </g>
    </g>
    <g id="ytick_4">
     <g id="line2d_9">
      <path d="M 52.160938 83.731627 
L 498.560937 83.731627 
" clip-path="url(#p796df13bf1)" style="fill: none; stroke: #b0b0b0; stroke-opacity: 0.3; stroke-width: 0.8; stroke-linecap: square"/>
     </g>
     <g id="line2d_10">
      <g>
       <use xlink:href="#m9555cde6b6" x="52.160938" y="83.731627" style="stroke: #000000; stroke-width: 0.8"/>
      </g>
     </g>
     <g id="text_6">
      <!-- 0.2 -->
      <g transform="translate(29.257812 87.530846) scale(0.1 -0.1)">
       <use xlink:href="#DejaVuSans-30"/>
       <use xlink:href="#DejaVuSans-2e" transform="translate(63.623047 0)"/>
       <use xlink:href="#DejaVuSans-32" transform="translate(95.410156 0)"/>
      </g>
     </g>
    </g>
    <g id="ytick_5">
     <g id="line2d_11">
      <path d="M 52.160938 41.787757 
L 498.560937 41.787757 
" clip-path="url(#p796df13bf1)" style="fill: none; stroke: #b0b0b0; stroke-opacity: 0.3; stroke-width: 0.8; stroke-linecap: square"/>
     </g>
     <g id="line2d_12">
      <g>
       <use xlink:href="#m9555cde6b6" x="52.160938" y="41.787757" style="stroke: #000000; stroke-width: 0.8"/>
      </g>
     </g>
     <g id="text_7">
      <!-- 0.4 -->
      <g transform="translate(29.257812 45.586975) scale(0.1 -0.1)">
       <use xlink:href="#DejaVuSans-30"/>
       <use xlink:href="#DejaVuSans-2e" transform="translate(63.623047 0)"/>
       <use xlink:href="#DejaVuSans-34" transform="translate(95.410156 0)"/>
      </g>
     </g>
    </g>
    <g id="text_8">
     <!-- Spearman -->
     <g transform="translate(14.798437 158.758281) rotate(-90) scale(0.1 -0.1)">
      <defs>
       <path id="DejaVuSans-70" d="M 1159 525 
L 1159 -1331 
L 581 -1331 
L 581 3500 
L 1159 3500 
L 1159 2969 
Q 1341 3281 1617 3432 
Q 1894 3584 2278 3584 
Q 2916 3584 3314 3078 
Q 3713 2572 3713 1747 
Q 3713 922 3314 415 
Q 2916 -91 2278 -91 
Q 1894 -91 1617 61 
Q 1341 213 1159 525 
z
M 3116 1747 
Q 3116 2381 2855 2742 
Q 2594 3103 2138 3103 
Q 1681 3103 1420 2742 
Q 1159 2381 1159 1747 
Q 1159 1113 1420 752 
Q 1681 391 2138 391 
Q 2594 391 2855 752 
Q 3116 1113 3116 1747 
z
" transform="scale(0.015625)"/>
       <path id="DejaVuSans-6d" d="M 3328 2828 
Q 3544 3216 3844 3400 
Q 4144 3584 4550 3584 
Q 5097 3584 5394 3201 
Q 5691 2819 5691 2113 
L 5691 0 
L 5113 0 
L 5113 2094 
Q 5113 2597 4934 2840 
Q 4756 3084 4391 3084 
Q 3944 3084 3684 2787 
Q 3425 2491 3425 1978 
L 3425 0 
L 2847 0 
L 2847 2094 
Q 2847 2600 2669 2842 
Q 2491 3084 2119 3084 
Q 1678 3084 1418 2786 
Q 1159 2488 1159 1978 
L 1159 0 
L 581 0 
L 581 3500 
L 1159 3500 
L 1159 2956 
Q 1356 3278 1631 3431 
Q 1906 3584 2284 3584 
Q 2666 3584 2933 3390 
Q 3200 3197 3328 2828 
z
" transform="scale(0.015625)"/>
      </defs>
      <use xlink:href="#DejaVuSans-53"/>
      <use xlink:href="#DejaVuSans-70" transform="translate(63.476562 0)"/>
      <use xlink:href="#DejaVuSans-65" transform="translate(126.953125 0)"/>
      <use xlink:href="#DejaVuSans-61" transform="translate(188.476562 0)"/>
      <use xlink:href="#DejaVuSans-72" transform="translate(249.755859 0)"/>
      <use xlink:href="#DejaVuSans-6d" transform="translate(289.119141 0)"/>
      <use xlink:href="#DejaVuSans-61" transform="translate(386.53125 0)"/>
      <use xlink:href="#DejaVuSans-6e" transform="translate(447.810547 0)"/>
     </g>
    </g>
   </g>
   <g id="LineCollection_1">
    <path d="M 112.773525 124.096418 
L 177.80849 124.096418 
" clip-path="url(#p796df13bf1)" style="fill: none; stroke: #1f77b4; stroke-width: 2"/>
    <path d="M 372.913385 99.516441 
L 437.94835 99.516441 
" clip-path="url(#p796df13bf1)" style="fill: none; stroke: #1f77b4; stroke-width: 2"/>
   </g>
   <g id="LineCollection_2">
    <path d="M 112.773525 116.626004 
L 177.80849 116.626004 
" clip-path="url(#p796df13bf1)" style="fill: none; stroke: #d62728; stroke-width: 2"/>
    <path d="M 372.913385 103.92984 
L 437.94835 103.92984 
" clip-path="url(#p796df13bf1)" style="fill: none; stroke: #d62728; stroke-width: 2"/>
   </g>
   <g id="LineCollection_3">
    <path d="M 72.451847 177.518705 
L 218.130168 177.518705 
" clip-path="url(#p796df13bf1)" style="fill: none; stroke: #2ca02c"/>
   </g>
   <g id="LineCollection_4">
    <path d="M 72.451847 151.802045 
L 218.130168 151.802045 
" clip-path="url(#p796df13bf1)" style="fill: none; stroke: #2ca02c"/>
   </g>
   <g id="LineCollection_5">
    <path d="M 72.451847 90.441784 
L 218.130168 90.441784 
" clip-path="url(#p796df13bf1)" style="fill: none; stroke: #2ca02c"/>
   </g>
   <g id="LineCollection_6">
    <path d="M 72.451847 77.174642 
L 218.130168 77.174642 
" clip-path="url(#p796df13bf1)" style="fill: none; stroke: #2ca02c"/>
   </g>
   <g id="LineCollection_7">
    <path d="M 332.591707 142.172233 
L 478.270028 142.172233 
" clip-path="url(#p796df13bf1)" style="fill: none; stroke: #2ca02c"/>
   </g>
   <g id="LineCollection_8">
    <path d="M 332.591707 128.076037 
L 478.270028 128.076037 
" clip-path="url(#p796df13bf1)" style="fill: none; stroke: #2ca02c"/>
   </g>
   <g id="LineCollection_9">
    <path d="M 332.591707 69.706723 
L 478.270028 69.706723 
" clip-path="url(#p796df13bf1)" style="fill: none; stroke: #2ca02c"/>
   </g>
   <g id="LineCollection_10">
    <path d="M 332.591707 47.226916 
L 478.270028 47.226916 
" clip-path="url(#p796df13bf1)" style="fill: none; stroke: #2ca02c"/>
   </g>
   <g id="patch_3">
    <path d="M 52.160938 244.078125 
L 52.160938 22.318125 
" style="fill: none; stroke: #000000; stroke-width: 0.8; stroke-linejoin: miter; stroke-linecap: square"/>
   </g>
   <g id="patch_4">
    <path d="M 498.560937 244.078125 
L 498.560937 22.318125 
" style="fill: none; stroke: #000000; stroke-width: 0.8; stroke-linejoin: miter; stroke-linecap: square"/>
   </g>
   <g id="patch_5">
    <path d="M 52.160938 244.078125 
L 498.560937 244.078125 
" style="fill: none; stroke: #000000; stroke-width: 0.8; stroke-linejoin: miter; stroke-linecap: square"/>
   </g>
   <g id="patch_6">
    <path d="M 52.160938 22.318125 
L 498.560937 22.318125 
" style="fill: none; stroke: #000000; stroke-width: 0.8; stroke-linejoin: miter; stroke-linecap: square"/>
   </g>
   <g id="text_9">
    <!-- Spearman -->
    <g transform="translate(244.68875 16.318125) scale(0.12 -0.12)">
     <use xlink:href="#DejaVuSans-53"/>
     <use xlink:href="#DejaVuSans-70" transform="translate(63.476562 0)"/>
     <use xlink:href="#DejaVuSans-65" transform="translate(126.953125 0)"/>
     <use xlink:href="#DejaVuSans-61" transform="translate(188.476562 0)"/>
     <use xlink:href="#DejaVuSans-72" transform="translate(249.755859 0)"/>
     <use xlink:href="#DejaVuSans-6d" transform="translate(289.119141 0)"/>
     <use xlink:href="#DejaVuSans-61" transform="translate(386.53125 0)"/>
     <use xlink:href="#DejaVuSans-6e" transform="translate(447.810547 0)"/>
    </g>
   </g>
   <g id="legend_1">
    <g id="line2d_13">
     <path d="M 414.046875 200.142187 
L 424.046875 200.142187 
L 434.046875 200.142187 
" style="fill: none; stroke: #1f77b4; stroke-width: 2; stroke-linecap: square"/>
    </g>
    <g id="text_10">
     <!-- Mean -->
     <g transform="translate(442.046875 203.642187) scale(0.1 -0.1)">
      <defs>
       <path id="DejaVuSans-4d" d="M 628 4666 
L 1569 4666 
L 2759 1491 
L 3956 4666 
L 4897 4666 
L 4897 0 
L 4281 0 
L 4281 4097 
L 3078 897 
L 2444 897 
L 1241 4097 
L 1241 0 
L 628 0 
L 628 4666 
z
" transform="scale(0.015625)"/>
      </defs>
      <use xlink:href="#DejaVuSans-4d"/>
      <use xlink:href="#DejaVuSans-65" transform="translate(86.279297 0)"/>
      <use xlink:href="#DejaVuSans-61" transform="translate(147.802734 0)"/>
      <use xlink:href="#DejaVuSans-6e" transform="translate(209.082031 0)"/>
     </g>
    </g>
    <g id="line2d_14">
     <path d="M 414.046875 214.820312 
L 424.046875 214.820312 
L 434.046875 214.820312 
" style="fill: none; stroke: #d62728; stroke-width: 2; stroke-linecap: square"/>
    </g>
    <g id="text_11">
     <!-- Median -->
     <g transform="translate(442.046875 218.320312) scale(0.1 -0.1)">
      <defs>
       <path id="DejaVuSans-64" d="M 2906 2969 
L 2906 4863 
L 3481 4863 
L 3481 0 
L 2906 0 
L 2906 525 
Q 2725 213 2448 61 
Q 2172 -91 1784 -91 
Q 1150 -91 751 415 
Q 353 922 353 1747 
Q 353 2572 751 3078 
Q 1150 3584 1784 3584 
Q 2172 3584 2448 3432 
Q 2725 3281 2906 2969 
z
M 947 1747 
Q 947 1113 1208 752 
Q 1469 391 1925 391 
Q 2381 391 2643 752 
Q 2906 1113 2906 1747 
Q 2906 2381 2643 2742 
Q 2381 3103 1925 3103 
Q 1469 3103 1208 2742 
Q 947 2381 947 1747 
z
" transform="scale(0.015625)"/>
      </defs>
      <use xlink:href="#DejaVuSans-4d"/>
      <use xlink:href="#DejaVuSans-65" transform="translate(86.279297 0)"/>
      <use xlink:href="#DejaVuSans-64" transform="translate(147.802734 0)"/>
      <use xlink:href="#DejaVuSans-69" transform="translate(211.279297 0)"/>
      <use xlink:href="#DejaVuSans-61" transform="translate(239.0625 0)"/>
      <use xlink:href="#DejaVuSans-6e" transform="translate(300.341797 0)"/>
     </g>
    </g>
    <g id="line2d_15">
     <path d="M 414.046875 229.498437 
L 424.046875 229.498437 
L 434.046875 229.498437 
" style="fill: none; stroke: #2ca02c; stroke-linecap: square"/>
    </g>
    <g id="text_12">
     <!-- Quantiles -->
     <g transform="translate(442.046875 232.998437) scale(0.1 -0.1)">
      <defs>
       <path id="DejaVuSans-51" d="M 2522 4238 
Q 1834 4238 1429 3725 
Q 1025 3213 1025 2328 
Q 1025 1447 1429 934 
Q 1834 422 2522 422 
Q 3209 422 3611 934 
Q 4013 1447 4013 2328 
Q 4013 3213 3611 3725 
Q 3209 4238 2522 4238 
z
M 3406 84 
L 4238 -825 
L 3475 -825 
L 2784 -78 
Q 2681 -84 2626 -87 
Q 2572 -91 2522 -91 
Q 1538 -91 948 567 
Q 359 1225 359 2328 
Q 359 3434 948 4092 
Q 1538 4750 2522 4750 
Q 3503 4750 4090 4092 
Q 4678 3434 4678 2328 
Q 4678 1516 4351 937 
Q 4025 359 3406 84 
z
" transform="scale(0.015625)"/>
       <path id="DejaVuSans-75" d="M 544 1381 
L 544 3500 
L 1119 3500 
L 1119 1403 
Q 1119 906 1312 657 
Q 1506 409 1894 409 
Q 2359 409 2629 706 
Q 2900 1003 2900 1516 
L 2900 3500 
L 3475 3500 
L 3475 0 
L 2900 0 
L 2900 538 
Q 2691 219 2414 64 
Q 2138 -91 1772 -91 
Q 1169 -91 856 284 
Q 544 659 544 1381 
z
M 1991 3584 
L 1991 3584 
z
" transform="scale(0.015625)"/>
       <path id="DejaVuSans-73" d="M 2834 3397 
L 2834 2853 
Q 2591 2978 2328 3040 
Q 2066 3103 1784 3103 
Q 1356 3103 1142 2972 
Q 928 2841 928 2578 
Q 928 2378 1081 2264 
Q 1234 2150 1697 2047 
L 1894 2003 
Q 2506 1872 2764 1633 
Q 3022 1394 3022 966 
Q 3022 478 2636 193 
Q 2250 -91 1575 -91 
Q 1294 -91 989 -36 
Q 684 19 347 128 
L 347 722 
Q 666 556 975 473 
Q 1284 391 1588 391 
Q 1994 391 2212 530 
Q 2431 669 2431 922 
Q 2431 1156 2273 1281 
Q 2116 1406 1581 1522 
L 1381 1569 
Q 847 1681 609 1914 
Q 372 2147 372 2553 
Q 372 3047 722 3315 
Q 1072 3584 1716 3584 
Q 2034 3584 2315 3537 
Q 2597 3491 2834 3397 
z
" transform="scale(0.015625)"/>
      </defs>
      <use xlink:href="#DejaVuSans-51"/>
      <use xlink:href="#DejaVuSans-75" transform="translate(78.710938 0)"/>
      <use xlink:href="#DejaVuSans-61" transform="translate(142.089844 0)"/>
      <use xlink:href="#DejaVuSans-6e" transform="translate(203.369141 0)"/>
      <use xlink:href="#DejaVuSans-74" transform="translate(266.748047 0)"/>
      <use xlink:href="#DejaVuSans-69" transform="translate(305.957031 0)"/>
      <use xlink:href="#DejaVuSans-6c" transform="translate(333.740234 0)"/>
      <use xlink:href="#DejaVuSans-65" transform="translate(361.523438 0)"/>
      <use xlink:href="#DejaVuSans-73" transform="translate(423.046875 0)"/>
     </g>
    </g>
   </g>
  </g>
 </g>
 <defs>
  <clipPath id="p796df13bf1">
   <rect x="52.160938" y="22.318125" width="446.4" height="221.76"/>
  </clipPath>
 </defs>
</svg>
