<?xml version="1.0" encoding="utf-8" standalone="no"?>
<!DOCTYPE svg PUBLIC "-//W3C//DTD SVG 1.1//EN"
  "http://www.w3.org/Graphics/SVG/1.1/DTD/svg11.dtd">
<svg xmlns:xlink="http://www.w3.org/1999/xlink" width="282.6625pt" height="279.220312pt" viewBox="0 0 282.6625 279.220312" xmlns="http://www.w3.org/2000/svg" version="1.1">
 <metadata>
  <rdf:RDF xmlns:dc="http://purl.org/dc/elements/1.1/" xmlns:cc="http://creativecommons.org/ns#" xmlns:rdf="http://www.w3.org/1999/02/22-rdf-syntax-ns#">
   <cc:Work>
    <dc:type rdf:resource="http://purl.org/dc/dcmitype/StillImage"/>
    <dc:date>2026-04-20T14:49:10.197709</dc:date>
    <dc:format>image/svg+xml</dc:format>
    <dc:creator>
     <cc:Agent>
      <dc:title>Matplotlib v3.10.8, https://matplotlib.org/</dc:title>
     </cc:Agent>
    </dc:creator>
   </cc:Work>
  </rdf:RDF>
 </metadata>
 <defs>
  <style type="text/css">*{stroke-linejoin: round; stroke-linecap: butt}</style>
 </defs>
 <g id="figure_1">
  <g id="patch_1">
   <path d="M 0 279.220312 
L 282.6625 279.220312 
L 282.6625 0 
L 0 0 
z
" style="fill: #ffffff"/>
  </g>
  <g id="axes_1">
   <g id="patch_2">
    <path d="M 52.2625 243.86625 
L 275.4625 243.86625 
L 275.4625 22.10625 
L 52.2625 22.10625 
z
" style="fill: #ffffff"/>
   </g>
   <g id="FillBetweenPolyCollection_1">
    <path d="M 114.701807 233.78625 
L 82.953263 233.78625 
L 82.457037 231.749886 
L 81.976288 229.713523 
L 81.512607 227.677159 
L 81.067471 225.640795 
L 80.642234 223.604432 
L 80.238117 221.568068 
L 79.856204 219.531705 
L 79.49743 217.495341 
L 79.162584 215.458977 
L 78.852303 213.422614 
L 78.567068 211.38625 
L 78.307212 209.349886 
L 78.07291 207.313523 
L 77.86419 205.277159 
L 77.680931 203.240795 
L 77.522864 201.204432 
L 77.389583 199.168068 
L 77.280541 197.131705 
L 77.195055 195.095341 
L 77.132316 193.058977 
L 77.091384 191.022614 
L 77.071197 188.98625 
L 77.070574 186.949886 
L 77.088218 184.913523 
L 77.122716 182.877159 
L 77.172548 180.840795 
L 77.236087 178.804432 
L 77.311601 176.768068 
L 77.397263 174.731705 
L 77.491148 172.695341 
L 77.591245 170.658977 
L 77.695458 168.622614 
L 77.801619 166.58625 
L 77.907492 164.549886 
L 78.010787 162.513523 
L 78.10917 160.477159 
L 78.200278 158.440795 
L 78.281733 156.404432 
L 78.351164 154.368068 
L 78.40622 152.331705 
L 78.444596 150.295341 
L 78.464056 148.258977 
L 78.462455 146.222614 
L 78.437764 144.18625 
L 78.3881 142.149886 
L 78.311751 140.113523 
L 78.207203 138.077159 
L 78.073166 136.040795 
L 77.908601 134.004432 
L 77.712747 131.968068 
L 77.485139 129.931705 
L 77.225632 127.895341 
L 76.934419 125.858977 
L 76.612043 123.822614 
L 76.259411 121.78625 
L 75.877798 119.749886 
L 75.468848 117.713523 
L 75.034577 115.677159 
L 74.57736 113.640795 
L 74.09992 111.604432 
L 73.605312 109.568068 
L 73.0969 107.531705 
L 72.578329 105.495341 
L 72.053496 103.458977 
L 71.52651 101.422614 
L 71.001659 99.38625 
L 70.483362 97.349886 
L 69.976128 95.313523 
L 69.484508 93.277159 
L 69.01305 91.240795 
L 68.566244 89.204432 
L 68.148483 87.168068 
L 67.764007 85.131705 
L 67.416866 83.095341 
L 67.110871 81.058977 
L 66.849553 79.022614 
L 66.636133 76.98625 
L 66.47348 74.949886 
L 66.364088 72.913523 
L 66.310052 70.877159 
L 66.313046 68.840795 
L 66.37431 66.804432 
L 66.49464 64.768068 
L 66.674389 62.731705 
L 66.913461 60.695341 
L 67.211323 58.658977 
L 67.567014 56.622614 
L 67.97916 54.58625 
L 68.445993 52.549886 
L 68.965376 50.513523 
L 69.534831 48.477159 
L 70.151562 46.440795 
L 70.812496 44.404432 
L 71.514309 42.368068 
L 72.253467 40.331705 
L 73.026259 38.295341 
L 73.828837 36.258977 
L 74.657249 34.222614 
L 75.507482 32.18625 
L 122.147587 32.18625 
L 122.147587 32.18625 
L 122.997821 34.222614 
L 123.826233 36.258977 
L 124.628811 38.295341 
L 125.401603 40.331705 
L 126.140761 42.368068 
L 126.842574 44.404432 
L 127.503508 46.440795 
L 128.120239 48.477159 
L 128.689694 50.513523 
L 129.209077 52.549886 
L 129.67591 54.58625 
L 130.088056 56.622614 
L 130.443747 58.658977 
L 130.741609 60.695341 
L 130.980681 62.731705 
L 131.16043 64.768068 
L 131.28076 66.804432 
L 131.342024 68.840795 
L 131.345017 70.877159 
L 131.290982 72.913523 
L 131.18159 74.949886 
L 131.018937 76.98625 
L 130.805517 79.022614 
L 130.544199 81.058977 
L 130.238203 83.095341 
L 129.891063 85.131705 
L 129.506587 87.168068 
L 129.088826 89.204432 
L 128.64202 91.240795 
L 128.170562 93.277159 
L 127.678942 95.313523 
L 127.171708 97.349886 
L 126.653411 99.38625 
L 126.12856 101.422614 
L 125.601574 103.458977 
L 125.076741 105.495341 
L 124.55817 107.531705 
L 124.049758 109.568068 
L 123.55515 111.604432 
L 123.07771 113.640795 
L 122.620493 115.677159 
L 122.186222 117.713523 
L 121.777272 119.749886 
L 121.395659 121.78625 
L 121.043027 123.822614 
L 120.720651 125.858977 
L 120.429438 127.895341 
L 120.169931 129.931705 
L 119.942323 131.968068 
L 119.746468 134.004432 
L 119.581904 136.040795 
L 119.447867 138.077159 
L 119.343318 140.113523 
L 119.26697 142.149886 
L 119.217306 144.18625 
L 119.192615 146.222614 
L 119.191014 148.258977 
L 119.210474 150.295341 
L 119.24885 152.331705 
L 119.303906 154.368068 
L 119.373336 156.404432 
L 119.454792 158.440795 
L 119.5459 160.477159 
L 119.644283 162.513523 
L 119.747578 164.549886 
L 119.853451 166.58625 
L 119.959612 168.622614 
L 120.063825 170.658977 
L 120.163922 172.695341 
L 120.257807 174.731705 
L 120.343468 176.768068 
L 120.418983 178.804432 
L 120.482522 180.840795 
L 120.532354 182.877159 
L 120.566852 184.913523 
L 120.584496 186.949886 
L 120.583873 188.98625 
L 120.563686 191.022614 
L 120.522754 193.058977 
L 120.460014 195.095341 
L 120.374529 197.131705 
L 120.265487 199.168068 
L 120.132205 201.204432 
L 119.974139 203.240795 
L 119.79088 205.277159 
L 119.58216 207.313523 
L 119.347858 209.349886 
L 119.088001 211.38625 
L 118.802767 213.422614 
L 118.492486 215.458977 
L 118.15764 217.495341 
L 117.798866 219.531705 
L 117.416953 221.568068 
L 117.012836 223.604432 
L 116.587599 225.640795 
L 116.142463 227.677159 
L 115.678782 229.713523 
L 115.198033 231.749886 
L 114.701807 233.78625 
z
" clip-path="url(#p39f0ee33e8)" style="fill: #1f77b4; fill-opacity: 0.3"/>
   </g>
   <g id="FillBetweenPolyCollection_2">
    <path d="M 239.733194 158.187737 
L 218.061736 158.187737 
L 217.740597 157.273069 
L 217.427412 156.3584 
L 217.122517 155.443731 
L 216.826133 154.529062 
L 216.538366 153.614393 
L 216.259212 152.699724 
L 215.988563 151.785055 
L 215.726215 150.870386 
L 215.471878 149.955717 
L 215.225187 149.041048 
L 214.985716 148.126379 
L 214.752991 147.21171 
L 214.526506 146.297042 
L 214.305737 145.382373 
L 214.090158 144.467704 
L 213.879259 143.553035 
L 213.672554 142.638366 
L 213.4696 141.723697 
L 213.270004 140.809028 
L 213.073436 139.894359 
L 212.879636 138.97969 
L 212.688416 138.065021 
L 212.499667 137.150352 
L 212.313356 136.235683 
L 212.129523 135.321015 
L 211.948277 134.406346 
L 211.769787 133.491677 
L 211.594268 132.577008 
L 211.421976 131.662339 
L 211.253182 130.74767 
L 211.088164 129.833001 
L 210.927186 128.918332 
L 210.77048 128.003663 
L 210.618224 127.088994 
L 210.470529 126.174325 
L 210.327418 125.259656 
L 210.188808 124.344987 
L 210.054499 123.430319 
L 209.924157 122.51565 
L 209.79731 121.600981 
L 209.673335 120.686312 
L 209.551458 119.771643 
L 209.430753 118.856974 
L 209.310147 117.942305 
L 209.188426 117.027636 
L 209.064245 116.112967 
L 208.936149 115.198298 
L 208.802583 114.283629 
L 208.661924 113.36896 
L 208.512498 112.454292 
L 208.352612 111.539623 
L 208.180582 110.624954 
L 207.994766 109.710285 
L 207.793598 108.795616 
L 207.57562 107.880947 
L 207.339514 106.966278 
L 207.084142 106.051609 
L 206.808568 105.13694 
L 206.512096 104.222271 
L 206.194298 103.307602 
L 205.855032 102.392933 
L 205.494473 101.478265 
L 205.113124 100.563596 
L 204.711834 99.648927 
L 204.291804 98.734258 
L 203.854595 97.819589 
L 203.402125 96.90492 
L 202.936662 95.990251 
L 202.460817 95.075582 
L 201.977525 94.160913 
L 201.490023 93.246244 
L 201.001827 92.331575 
L 200.516697 91.416906 
L 200.038604 90.502238 
L 199.571692 89.587569 
L 199.120232 88.6729 
L 198.688579 87.758231 
L 198.281123 86.843562 
L 197.902239 85.928893 
L 197.556237 85.014224 
L 197.247311 84.099555 
L 196.979487 83.184886 
L 196.756572 82.270217 
L 196.582112 81.355548 
L 196.459338 80.440879 
L 196.391132 79.52621 
L 196.379983 78.611542 
L 196.427954 77.696873 
L 196.536658 76.782204 
L 196.707226 75.867535 
L 196.940299 74.952866 
L 197.236009 74.038197 
L 197.593978 73.123528 
L 198.013318 72.208859 
L 198.492641 71.29419 
L 199.03007 70.379521 
L 199.623263 69.464852 
L 200.269439 68.550183 
L 200.965407 67.635515 
L 256.829523 67.635515 
L 256.829523 67.635515 
L 257.525491 68.550183 
L 258.171667 69.464852 
L 258.76486 70.379521 
L 259.302289 71.29419 
L 259.781612 72.208859 
L 260.200952 73.123528 
L 260.558921 74.038197 
L 260.854631 74.952866 
L 261.087704 75.867535 
L 261.258272 76.782204 
L 261.366976 77.696873 
L 261.414948 78.611542 
L 261.403798 79.52621 
L 261.335592 80.440879 
L 261.212818 81.355548 
L 261.038358 82.270217 
L 260.815443 83.184886 
L 260.547619 84.099555 
L 260.238693 85.014224 
L 259.892691 85.928893 
L 259.513808 86.843562 
L 259.106351 87.758231 
L 258.674698 88.6729 
L 258.223238 89.587569 
L 257.756326 90.502238 
L 257.278233 91.416906 
L 256.793103 92.331575 
L 256.304907 93.246244 
L 255.817405 94.160913 
L 255.334113 95.075582 
L 254.858268 95.990251 
L 254.392806 96.90492 
L 253.940335 97.819589 
L 253.503126 98.734258 
L 253.083096 99.648927 
L 252.681806 100.563596 
L 252.300457 101.478265 
L 251.939898 102.392933 
L 251.600632 103.307602 
L 251.282834 104.222271 
L 250.986362 105.13694 
L 250.710788 106.051609 
L 250.455416 106.966278 
L 250.21931 107.880947 
L 250.001332 108.795616 
L 249.800164 109.710285 
L 249.614349 110.624954 
L 249.442318 111.539623 
L 249.282432 112.454292 
L 249.133006 113.36896 
L 248.992347 114.283629 
L 248.858781 115.198298 
L 248.730685 116.112967 
L 248.606504 117.027636 
L 248.484783 117.942305 
L 248.364177 118.856974 
L 248.243472 119.771643 
L 248.121595 120.686312 
L 247.99762 121.600981 
L 247.870773 122.51565 
L 247.740431 123.430319 
L 247.606122 124.344987 
L 247.467512 125.259656 
L 247.324401 126.174325 
L 247.176706 127.088994 
L 247.024451 128.003663 
L 246.867744 128.918332 
L 246.706766 129.833001 
L 246.541749 130.74767 
L 246.372955 131.662339 
L 246.200662 132.577008 
L 246.025144 133.491677 
L 245.846653 134.406346 
L 245.665407 135.321015 
L 245.481574 136.235683 
L 245.295263 137.150352 
L 245.106514 138.065021 
L 244.915294 138.97969 
L 244.721494 139.894359 
L 244.524926 140.809028 
L 244.32533 141.723697 
L 244.122376 142.638366 
L 243.915671 143.553035 
L 243.704772 144.467704 
L 243.489193 145.382373 
L 243.268424 146.297042 
L 243.041939 147.21171 
L 242.809214 148.126379 
L 242.569743 149.041048 
L 242.323052 149.955717 
L 242.068715 150.870386 
L 241.806367 151.785055 
L 241.535718 152.699724 
L 241.256564 153.614393 
L 240.968797 154.529062 
L 240.672413 155.443731 
L 240.367518 156.3584 
L 240.054333 157.273069 
L 239.733194 158.187737 
z
" clip-path="url(#p39f0ee33e8)" style="fill: #1f77b4; fill-opacity: 0.3"/>
   </g>
   <g id="matplotlib.axis_1">
    <g id="xtick_1">
     <g id="line2d_1">
      <defs>
       <path id="m42e34302e0" d="M 0 0 
L 0 3.5 
" style="stroke: #000000; stroke-width: 0.8"/>
      </defs>
      <g>
       <use xlink:href="#m42e34302e0" x="98.827535" y="243.86625" style="stroke: #000000; stroke-width: 0.8"/>
      </g>
     </g>
     <g id="text_1">
      <!-- eye_tracking -->
      <g transform="translate(66.758785 258.464687) scale(0.1 -0.1)">
       <defs>
        <path id="DejaVuSans-65" d="M 3597 1894 
L 3597 1613 
L 953 1613 
Q 991 1019 1311 708 
Q 1631 397 2203 397 
Q 2534 397 2845 478 
Q 3156 559 3463 722 
L 3463 178 
Q 3153 47 2828 -22 
Q 2503 -91 2169 -91 
Q 1331 -91 842 396 
Q 353 884 353 1716 
Q 353 2575 817 3079 
Q 1281 3584 2069 3584 
Q 2775 3584 3186 3129 
Q 3597 2675 3597 1894 
z
M 3022 2063 
Q 3016 2534 2758 2815 
Q 2500 3097 2075 3097 
Q 1594 3097 1305 2825 
Q 1016 2553 972 2059 
L 3022 2063 
z
" transform="scale(0.015625)"/>
        <path id="DejaVuSans-79" d="M 2059 -325 
Q 1816 -950 1584 -1140 
Q 1353 -1331 966 -1331 
L 506 -1331 
L 506 -850 
L 844 -850 
Q 1081 -850 1212 -737 
Q 1344 -625 1503 -206 
L 1606 56 
L 191 3500 
L 800 3500 
L 1894 763 
L 2988 3500 
L 3597 3500 
L 2059 -325 
z
" transform="scale(0.015625)"/>
        <path id="DejaVuSans-5f" d="M 3263 -1063 
L 3263 -1509 
L -63 -1509 
L -63 -1063 
L 3263 -1063 
z
" transform="scale(0.015625)"/>
        <path id="DejaVuSans-74" d="M 1172 4494 
L 1172 3500 
L 2356 3500 
L 2356 3053 
L 1172 3053 
L 1172 1153 
Q 1172 725 1289 603 
Q 1406 481 1766 481 
L 2356 481 
L 2356 0 
L 1766 0 
Q 1100 0 847 248 
Q 594 497 594 1153 
L 594 3053 
L 172 3053 
L 172 3500 
L 594 3500 
L 594 4494 
L 1172 4494 
z
" transform="scale(0.015625)"/>
        <path id="DejaVuSans-72" d="M 2631 2963 
Q 2534 3019 2420 3045 
Q 2306 3072 2169 3072 
Q 1681 3072 1420 2755 
Q 1159 2438 1159 1844 
L 1159 0 
L 581 0 
L 581 3500 
L 1159 3500 
L 1159 2956 
Q 1341 3275 1631 3429 
Q 1922 3584 2338 3584 
Q 2397 3584 2469 3576 
Q 2541 3569 2628 3553 
L 2631 2963 
z
" transform="scale(0.015625)"/>
        <path id="DejaVuSans-61" d="M 2194 1759 
Q 1497 1759 1228 1600 
Q 959 1441 959 1056 
Q 959 750 1161 570 
Q 1363 391 1709 391 
Q 2188 391 2477 730 
Q 2766 1069 2766 1631 
L 2766 1759 
L 2194 1759 
z
M 3341 1997 
L 3341 0 
L 2766 0 
L 2766 531 
Q 2569 213 2275 61 
Q 1981 -91 1556 -91 
Q 1019 -91 701 211 
Q 384 513 384 1019 
Q 384 1609 779 1909 
Q 1175 2209 1959 2209 
L 2766 2209 
L 2766 2266 
Q 2766 2663 2505 2880 
Q 2244 3097 1772 3097 
Q 1472 3097 1187 3025 
Q 903 2953 641 2809 
L 641 3341 
Q 956 3463 1253 3523 
Q 1550 3584 1831 3584 
Q 2591 3584 2966 3190 
Q 3341 2797 3341 1997 
z
" transform="scale(0.015625)"/>
        <path id="DejaVuSans-63" d="M 3122 3366 
L 3122 2828 
Q 2878 2963 2633 3030 
Q 2388 3097 2138 3097 
Q 1578 3097 1268 2742 
Q 959 2388 959 1747 
Q 959 1106 1268 751 
Q 1578 397 2138 397 
Q 2388 397 2633 464 
Q 2878 531 3122 666 
L 3122 134 
Q 2881 22 2623 -34 
Q 2366 -91 2075 -91 
Q 1284 -91 818 406 
Q 353 903 353 1747 
Q 353 2603 823 3093 
Q 1294 3584 2113 3584 
Q 2378 3584 2631 3529 
Q 2884 3475 3122 3366 
z
" transform="scale(0.015625)"/>
        <path id="DejaVuSans-6b" d="M 581 4863 
L 1159 4863 
L 1159 1991 
L 2875 3500 
L 3609 3500 
L 1753 1863 
L 3688 0 
L 2938 0 
L 1159 1709 
L 1159 0 
L 581 0 
L 581 4863 
z
" transform="scale(0.015625)"/>
        <path id="DejaVuSans-69" d="M 603 3500 
L 1178 3500 
L 1178 0 
L 603 0 
L 603 3500 
z
M 603 4863 
L 1178 4863 
L 1178 4134 
L 603 4134 
L 603 4863 
z
" transform="scale(0.015625)"/>
        <path id="DejaVuSans-6e" d="M 3513 2113 
L 3513 0 
L 2938 0 
L 2938 2094 
Q 2938 2591 2744 2837 
Q 2550 3084 2163 3084 
Q 1697 3084 1428 2787 
Q 1159 2491 1159 1978 
L 1159 0 
L 581 0 
L 581 3500 
L 1159 3500 
L 1159 2956 
Q 1366 3272 1645 3428 
Q 1925 3584 2291 3584 
Q 2894 3584 3203 3211 
Q 3513 2838 3513 2113 
z
" transform="scale(0.015625)"/>
        <path id="DejaVuSans-67" d="M 2906 1791 
Q 2906 2416 2648 2759 
Q 2391 3103 1925 3103 
Q 1463 3103 1205 2759 
Q 947 2416 947 1791 
Q 947 1169 1205 825 
Q 1463 481 1925 481 
Q 2391 481 2648 825 
Q 2906 1169 2906 1791 
z
M 3481 434 
Q 3481 -459 3084 -895 
Q 2688 -1331 1869 -1331 
Q 1566 -1331 1297 -1286 
Q 1028 -1241 775 -1147 
L 775 -588 
Q 1028 -725 1275 -790 
Q 1522 -856 1778 -856 
Q 2344 -856 2625 -561 
Q 2906 -266 2906 331 
L 2906 616 
Q 2728 306 2450 153 
Q 2172 0 1784 0 
Q 1141 0 747 490 
Q 353 981 353 1791 
Q 353 2603 747 3093 
Q 1141 3584 1784 3584 
Q 2172 3584 2450 3431 
Q 2728 3278 2906 2969 
L 2906 3500 
L 3481 3500 
L 3481 434 
z
" transform="scale(0.015625)"/>
       </defs>
       <use xlink:href="#DejaVuSans-65"/>
       <use xlink:href="#DejaVuSans-79" transform="translate(61.523438 0)"/>
       <use xlink:href="#DejaVuSans-65" transform="translate(120.703125 0)"/>
       <use xlink:href="#DejaVuSans-5f" transform="translate(182.226562 0)"/>
       <use xlink:href="#DejaVuSans-74" transform="translate(232.226562 0)"/>
       <use xlink:href="#DejaVuSans-72" transform="translate(271.435547 0)"/>
       <use xlink:href="#DejaVuSans-61" transform="translate(312.548828 0)"/>
       <use xlink:href="#DejaVuSans-63" transform="translate(373.828125 0)"/>
       <use xlink:href="#DejaVuSans-6b" transform="translate(428.808594 0)"/>
       <use xlink:href="#DejaVuSans-69" transform="translate(486.71875 0)"/>
       <use xlink:href="#DejaVuSans-6e" transform="translate(514.501953 0)"/>
       <use xlink:href="#DejaVuSans-67" transform="translate(577.880859 0)"/>
      </g>
      <!-- Single -->
      <g transform="translate(83.45566 269.940625) scale(0.1 -0.1)">
       <defs>
        <path id="DejaVuSans-53" d="M 3425 4513 
L 3425 3897 
Q 3066 4069 2747 4153 
Q 2428 4238 2131 4238 
Q 1616 4238 1336 4038 
Q 1056 3838 1056 3469 
Q 1056 3159 1242 3001 
Q 1428 2844 1947 2747 
L 2328 2669 
Q 3034 2534 3370 2195 
Q 3706 1856 3706 1288 
Q 3706 609 3251 259 
Q 2797 -91 1919 -91 
Q 1588 -91 1214 -16 
Q 841 59 441 206 
L 441 856 
Q 825 641 1194 531 
Q 1563 422 1919 422 
Q 2459 422 2753 634 
Q 3047 847 3047 1241 
Q 3047 1584 2836 1778 
Q 2625 1972 2144 2069 
L 1759 2144 
Q 1053 2284 737 2584 
Q 422 2884 422 3419 
Q 422 4038 858 4394 
Q 1294 4750 2059 4750 
Q 2388 4750 2728 4690 
Q 3069 4631 3425 4513 
z
" transform="scale(0.015625)"/>
        <path id="DejaVuSans-6c" d="M 603 4863 
L 1178 4863 
L 1178 0 
L 603 0 
L 603 4863 
z
" transform="scale(0.015625)"/>
       </defs>
       <use xlink:href="#DejaVuSans-53"/>
       <use xlink:href="#DejaVuSans-69" transform="translate(63.476562 0)"/>
       <use xlink:href="#DejaVuSans-6e" transform="translate(91.259766 0)"/>
       <use xlink:href="#DejaVuSans-67" transform="translate(154.638672 0)"/>
       <use xlink:href="#DejaVuSans-6c" transform="translate(218.115234 0)"/>
       <use xlink:href="#DejaVuSans-65" transform="translate(245.898438 0)"/>
      </g>
     </g>
    </g>
    <g id="xtick_2">
     <g id="line2d_2">
      <g>
       <use xlink:href="#m42e34302e0" x="228.897465" y="243.86625" style="stroke: #000000; stroke-width: 0.8"/>
      </g>
     </g>
     <g id="text_2">
      <!-- face_tracking -->
      <g transform="translate(195.291215 258.464687) scale(0.1 -0.1)">
       <defs>
        <path id="DejaVuSans-66" d="M 2375 4863 
L 2375 4384 
L 1825 4384 
Q 1516 4384 1395 4259 
Q 1275 4134 1275 3809 
L 1275 3500 
L 2222 3500 
L 2222 3053 
L 1275 3053 
L 1275 0 
L 697 0 
L 697 3053 
L 147 3053 
L 147 3500 
L 697 3500 
L 697 3744 
Q 697 4328 969 4595 
Q 1241 4863 1831 4863 
L 2375 4863 
z
" transform="scale(0.015625)"/>
       </defs>
       <use xlink:href="#DejaVuSans-66"/>
       <use xlink:href="#DejaVuSans-61" transform="translate(35.205078 0)"/>
       <use xlink:href="#DejaVuSans-63" transform="translate(96.484375 0)"/>
       <use xlink:href="#DejaVuSans-65" transform="translate(151.464844 0)"/>
       <use xlink:href="#DejaVuSans-5f" transform="translate(212.988281 0)"/>
       <use xlink:href="#DejaVuSans-74" transform="translate(262.988281 0)"/>
       <use xlink:href="#DejaVuSans-72" transform="translate(302.197266 0)"/>
       <use xlink:href="#DejaVuSans-61" transform="translate(343.310547 0)"/>
       <use xlink:href="#DejaVuSans-63" transform="translate(404.589844 0)"/>
       <use xlink:href="#DejaVuSans-6b" transform="translate(459.570312 0)"/>
       <use xlink:href="#DejaVuSans-69" transform="translate(517.480469 0)"/>
       <use xlink:href="#DejaVuSans-6e" transform="translate(545.263672 0)"/>
       <use xlink:href="#DejaVuSans-67" transform="translate(608.642578 0)"/>
      </g>
      <!-- Single -->
      <g transform="translate(213.52559 269.940625) scale(0.1 -0.1)">
       <use xlink:href="#DejaVuSans-53"/>
       <use xlink:href="#DejaVuSans-69" transform="translate(63.476562 0)"/>
       <use xlink:href="#DejaVuSans-6e" transform="translate(91.259766 0)"/>
       <use xlink:href="#DejaVuSans-67" transform="translate(154.638672 0)"/>
       <use xlink:href="#DejaVuSans-6c" transform="translate(218.115234 0)"/>
       <use xlink:href="#DejaVuSans-65" transform="translate(245.898438 0)"/>
      </g>
     </g>
    </g>
   </g>
   <g id="matplotlib.axis_2">
    <g id="ytick_1">
     <g id="line2d_3">
      <path d="M 52.2625 228.332055 
L 275.4625 228.332055 
" clip-path="url(#p39f0ee33e8)" style="fill: none; stroke: #b0b0b0; stroke-opacity: 0.3; stroke-width: 0.8; stroke-linecap: square"/>
     </g>
     <g id="line2d_4">
      <defs>
       <path id="ma15d97d97b" d="M 0 0 
L -3.5 0 
" style="stroke: #000000; stroke-width: 0.8"/>
      </defs>
      <g>
       <use xlink:href="#ma15d97d97b" x="52.2625" y="228.332055" style="stroke: #000000; stroke-width: 0.8"/>
      </g>
     </g>
     <g id="text_3">
      <!-- −0.4 -->
      <g transform="translate(20.979688 232.131274) scale(0.1 -0.1)">
       <defs>
        <path id="DejaVuSans-2212" d="M 678 2272 
L 4684 2272 
L 4684 1741 
L 678 1741 
L 678 2272 
z
" transform="scale(0.015625)"/>
        <path id="DejaVuSans-30" d="M 2034 4250 
Q 1547 4250 1301 3770 
Q 1056 3291 1056 2328 
Q 1056 1369 1301 889 
Q 1547 409 2034 409 
Q 2525 409 2770 889 
Q 3016 1369 3016 2328 
Q 3016 3291 2770 3770 
Q 2525 4250 2034 4250 
z
M 2034 4750 
Q 2819 4750 3233 4129 
Q 3647 3509 3647 2328 
Q 3647 1150 3233 529 
Q 2819 -91 2034 -91 
Q 1250 -91 836 529 
Q 422 1150 422 2328 
Q 422 3509 836 4129 
Q 1250 4750 2034 4750 
z
" transform="scale(0.015625)"/>
        <path id="DejaVuSans-2e" d="M 684 794 
L 1344 794 
L 1344 0 
L 684 0 
L 684 794 
z
" transform="scale(0.015625)"/>
        <path id="DejaVuSans-34" d="M 2419 4116 
L 825 1625 
L 2419 1625 
L 2419 4116 
z
M 2253 4666 
L 3047 4666 
L 3047 1625 
L 3713 1625 
L 3713 1100 
L 3047 1100 
L 3047 0 
L 2419 0 
L 2419 1100 
L 313 1100 
L 313 1709 
L 2253 4666 
z
" transform="scale(0.015625)"/>
       </defs>
       <use xlink:href="#DejaVuSans-2212"/>
       <use xlink:href="#DejaVuSans-30" transform="translate(83.789062 0)"/>
       <use xlink:href="#DejaVuSans-2e" transform="translate(147.412109 0)"/>
       <use xlink:href="#DejaVuSans-34" transform="translate(179.199219 0)"/>
      </g>
     </g>
    </g>
    <g id="ytick_2">
     <g id="line2d_5">
      <path d="M 52.2625 201.844873 
L 275.4625 201.844873 
" clip-path="url(#p39f0ee33e8)" style="fill: none; stroke: #b0b0b0; stroke-opacity: 0.3; stroke-width: 0.8; stroke-linecap: square"/>
     </g>
     <g id="line2d_6">
      <g>
       <use xlink:href="#ma15d97d97b" x="52.2625" y="201.844873" style="stroke: #000000; stroke-width: 0.8"/>
      </g>
     </g>
     <g id="text_4">
      <!-- −0.3 -->
      <g transform="translate(20.979688 205.644092) scale(0.1 -0.1)">
       <defs>
        <path id="DejaVuSans-33" d="M 2597 2516 
Q 3050 2419 3304 2112 
Q 3559 1806 3559 1356 
Q 3559 666 3084 287 
Q 2609 -91 1734 -91 
Q 1441 -91 1130 -33 
Q 819 25 488 141 
L 488 750 
Q 750 597 1062 519 
Q 1375 441 1716 441 
Q 2309 441 2620 675 
Q 2931 909 2931 1356 
Q 2931 1769 2642 2001 
Q 2353 2234 1838 2234 
L 1294 2234 
L 1294 2753 
L 1863 2753 
Q 2328 2753 2575 2939 
Q 2822 3125 2822 3475 
Q 2822 3834 2567 4026 
Q 2313 4219 1838 4219 
Q 1578 4219 1281 4162 
Q 984 4106 628 3988 
L 628 4550 
Q 988 4650 1302 4700 
Q 1616 4750 1894 4750 
Q 2613 4750 3031 4423 
Q 3450 4097 3450 3541 
Q 3450 3153 3228 2886 
Q 3006 2619 2597 2516 
z
" transform="scale(0.015625)"/>
       </defs>
       <use xlink:href="#DejaVuSans-2212"/>
       <use xlink:href="#DejaVuSans-30" transform="translate(83.789062 0)"/>
       <use xlink:href="#DejaVuSans-2e" transform="translate(147.412109 0)"/>
       <use xlink:href="#DejaVuSans-33" transform="translate(179.199219 0)"/>
      </g>
     </g>
    </g>
    <g id="ytick_3">
     <g id="line2d_7">
      <path d="M 52.2625 175.357691 
L 275.4625 175.357691 
" clip-path="url(#p39f0ee33e8)" style="fill: none; stroke: #b0b0b0; stroke-opacity: 0.3; stroke-width: 0.8; stroke-linecap: square"/>
     </g>
     <g id="line2d_8">
      <g>
       <use xlink:href="#ma15d97d97b" x="52.2625" y="175.357691" style="stroke: #000000; stroke-width: 0.8"/>
      </g>
     </g>
     <g id="text_5">
      <!-- −0.2 -->
      <g transform="translate(20.979688 179.15691) scale(0.1 -0.1)">
       <defs>
        <path id="DejaVuSans-32" d="M 1228 531 
L 3431 531 
L 3431 0 
L 469 0 
L 469 531 
Q 828 903 1448 1529 
Q 2069 2156 2228 2338 
Q 2531 2678 2651 2914 
Q 2772 3150 2772 3378 
Q 2772 3750 2511 3984 
Q 2250 4219 1831 4219 
Q 1534 4219 1204 4116 
Q 875 4013 500 3803 
L 500 4441 
Q 881 4594 1212 4672 
Q 1544 4750 1819 4750 
Q 2544 4750 2975 4387 
Q 3406 4025 3406 3419 
Q 3406 3131 3298 2873 
Q 3191 2616 2906 2266 
Q 2828 2175 2409 1742 
Q 1991 1309 1228 531 
z
" transform="scale(0.015625)"/>
       </defs>
       <use xlink:href="#DejaVuSans-2212"/>
       <use xlink:href="#DejaVuSans-30" transform="translate(83.789062 0)"/>
       <use xlink:href="#DejaVuSans-2e" transform="translate(147.412109 0)"/>
       <use xlink:href="#DejaVuSans-32" transform="translate(179.199219 0)"/>
      </g>
     </g>
    </g>
    <g id="ytick_4">
     <g id="line2d_9">
      <path d="M 52.2625 148.870509 
L 275.4625 148.870509 
" clip-path="url(#p39f0ee33e8)" style="fill: none; stroke: #b0b0b0; stroke-opacity: 0.3; stroke-width: 0.8; stroke-linecap: square"/>
     </g>
     <g id="line2d_10">
      <g>
       <use xlink:href="#ma15d97d97b" x="52.2625" y="148.870509" style="stroke: #000000; stroke-width: 0.8"/>
      </g>
     </g>
     <g id="text_6">
      <!-- −0.1 -->
      <g transform="translate(20.979688 152.669727) scale(0.1 -0.1)">
       <defs>
        <path id="DejaVuSans-31" d="M 794 531 
L 1825 531 
L 1825 4091 
L 703 3866 
L 703 4441 
L 1819 4666 
L 2450 4666 
L 2450 531 
L 3481 531 
L 3481 0 
L 794 0 
L 794 531 
z
" transform="scale(0.015625)"/>
       </defs>
       <use xlink:href="#DejaVuSans-2212"/>
       <use xlink:href="#DejaVuSans-30" transform="translate(83.789062 0)"/>
       <use xlink:href="#DejaVuSans-2e" transform="translate(147.412109 0)"/>
       <use xlink:href="#DejaVuSans-31" transform="translate(179.199219 0)"/>
      </g>
     </g>
    </g>
    <g id="ytick_5">
     <g id="line2d_11">
      <path d="M 52.2625 122.383326 
L 275.4625 122.383326 
" clip-path="url(#p39f0ee33e8)" style="fill: none; stroke: #b0b0b0; stroke-opacity: 0.3; stroke-width: 0.8; stroke-linecap: square"/>
     </g>
     <g id="line2d_12">
      <g>
       <use xlink:href="#ma15d97d97b" x="52.2625" y="122.383326" style="stroke: #000000; stroke-width: 0.8"/>
      </g>
     </g>
     <g id="text_7">
      <!-- 0.0 -->
      <g transform="translate(29.359375 126.182545) scale(0.1 -0.1)">
       <use xlink:href="#DejaVuSans-30"/>
       <use xlink:href="#DejaVuSans-2e" transform="translate(63.623047 0)"/>
       <use xlink:href="#DejaVuSans-30" transform="translate(95.410156 0)"/>
      </g>
     </g>
    </g>
    <g id="ytick_6">
     <g id="line2d_13">
      <path d="M 52.2625 95.896144 
L 275.4625 95.896144 
" clip-path="url(#p39f0ee33e8)" style="fill: none; stroke: #b0b0b0; stroke-opacity: 0.3; stroke-width: 0.8; stroke-linecap: square"/>
     </g>
     <g id="line2d_14">
      <g>
       <use xlink:href="#ma15d97d97b" x="52.2625" y="95.896144" style="stroke: #000000; stroke-width: 0.8"/>
      </g>
     </g>
     <g id="text_8">
      <!-- 0.1 -->
      <g transform="translate(29.359375 99.695363) scale(0.1 -0.1)">
       <use xlink:href="#DejaVuSans-30"/>
       <use xlink:href="#DejaVuSans-2e" transform="translate(63.623047 0)"/>
       <use xlink:href="#DejaVuSans-31" transform="translate(95.410156 0)"/>
      </g>
     </g>
    </g>
    <g id="ytick_7">
     <g id="line2d_15">
      <path d="M 52.2625 69.408962 
L 275.4625 69.408962 
" clip-path="url(#p39f0ee33e8)" style="fill: none; stroke: #b0b0b0; stroke-opacity: 0.3; stroke-width: 0.8; stroke-linecap: square"/>
     </g>
     <g id="line2d_16">
      <g>
       <use xlink:href="#ma15d97d97b" x="52.2625" y="69.408962" style="stroke: #000000; stroke-width: 0.8"/>
      </g>
     </g>
     <g id="text_9">
      <!-- 0.2 -->
      <g transform="translate(29.359375 73.208181) scale(0.1 -0.1)">
       <use xlink:href="#DejaVuSans-30"/>
       <use xlink:href="#DejaVuSans-2e" transform="translate(63.623047 0)"/>
       <use xlink:href="#DejaVuSans-32" transform="translate(95.410156 0)"/>
      </g>
     </g>
    </g>
    <g id="ytick_8">
     <g id="line2d_17">
      <path d="M 52.2625 42.92178 
L 275.4625 42.92178 
" clip-path="url(#p39f0ee33e8)" style="fill: none; stroke: #b0b0b0; stroke-opacity: 0.3; stroke-width: 0.8; stroke-linecap: square"/>
     </g>
     <g id="line2d_18">
      <g>
       <use xlink:href="#ma15d97d97b" x="52.2625" y="42.92178" style="stroke: #000000; stroke-width: 0.8"/>
      </g>
     </g>
     <g id="text_10">
      <!-- 0.3 -->
      <g transform="translate(29.359375 46.720999) scale(0.1 -0.1)">
       <use xlink:href="#DejaVuSans-30"/>
       <use xlink:href="#DejaVuSans-2e" transform="translate(63.623047 0)"/>
       <use xlink:href="#DejaVuSans-33" transform="translate(95.410156 0)"/>
      </g>
     </g>
    </g>
    <g id="text_11">
     <!-- Spearman_SCR -->
     <g transform="translate(14.621875 171.18625) rotate(-90) scale(0.1 -0.1)">
      <defs>
       <path id="DejaVuSans-70" d="M 1159 525 
L 1159 -1331 
L 581 -1331 
L 581 3500 
L 1159 3500 
L 1159 2969 
Q 1341 3281 1617 3432 
Q 1894 3584 2278 3584 
Q 2916 3584 3314 3078 
Q 3713 2572 3713 1747 
Q 3713 922 3314 415 
Q 2916 -91 2278 -91 
Q 1894 -91 1617 61 
Q 1341 213 1159 525 
z
M 3116 1747 
Q 3116 2381 2855 2742 
Q 2594 3103 2138 3103 
Q 1681 3103 1420 2742 
Q 1159 2381 1159 1747 
Q 1159 1113 1420 752 
Q 1681 391 2138 391 
Q 2594 391 2855 752 
Q 3116 1113 3116 1747 
z
" transform="scale(0.015625)"/>
       <path id="DejaVuSans-6d" d="M 3328 2828 
Q 3544 3216 3844 3400 
Q 4144 3584 4550 3584 
Q 5097 3584 5394 3201 
Q 5691 2819 5691 2113 
L 5691 0 
L 5113 0 
L 5113 2094 
Q 5113 2597 4934 2840 
Q 4756 3084 4391 3084 
Q 3944 3084 3684 2787 
Q 3425 2491 3425 1978 
L 3425 0 
L 2847 0 
L 2847 2094 
Q 2847 2600 2669 2842 
Q 2491 3084 2119 3084 
Q 1678 3084 1418 2786 
Q 1159 2488 1159 1978 
L 1159 0 
L 581 0 
L 581 3500 
L 1159 3500 
L 1159 2956 
Q 1356 3278 1631 3431 
Q 1906 3584 2284 3584 
Q 2666 3584 2933 3390 
Q 3200 3197 3328 2828 
z
" transform="scale(0.015625)"/>
       <path id="DejaVuSans-43" d="M 4122 4306 
L 4122 3641 
Q 3803 3938 3442 4084 
Q 3081 4231 2675 4231 
Q 1875 4231 1450 3742 
Q 1025 3253 1025 2328 
Q 1025 1406 1450 917 
Q 1875 428 2675 428 
Q 3081 428 3442 575 
Q 3803 722 4122 1019 
L 4122 359 
Q 3791 134 3420 21 
Q 3050 -91 2638 -91 
Q 1578 -91 968 557 
Q 359 1206 359 2328 
Q 359 3453 968 4101 
Q 1578 4750 2638 4750 
Q 3056 4750 3426 4639 
Q 3797 4528 4122 4306 
z
" transform="scale(0.015625)"/>
       <path id="DejaVuSans-52" d="M 2841 2188 
Q 3044 2119 3236 1894 
Q 3428 1669 3622 1275 
L 4263 0 
L 3584 0 
L 2988 1197 
Q 2756 1666 2539 1819 
Q 2322 1972 1947 1972 
L 1259 1972 
L 1259 0 
L 628 0 
L 628 4666 
L 2053 4666 
Q 2853 4666 3247 4331 
Q 3641 3997 3641 3322 
Q 3641 2881 3436 2590 
Q 3231 2300 2841 2188 
z
M 1259 4147 
L 1259 2491 
L 2053 2491 
Q 2509 2491 2742 2702 
Q 2975 2913 2975 3322 
Q 2975 3731 2742 3939 
Q 2509 4147 2053 4147 
L 1259 4147 
z
" transform="scale(0.015625)"/>
      </defs>
      <use xlink:href="#DejaVuSans-53"/>
      <use xlink:href="#DejaVuSans-70" transform="translate(63.476562 0)"/>
      <use xlink:href="#DejaVuSans-65" transform="translate(126.953125 0)"/>
      <use xlink:href="#DejaVuSans-61" transform="translate(188.476562 0)"/>
      <use xlink:href="#DejaVuSans-72" transform="translate(249.755859 0)"/>
      <use xlink:href="#DejaVuSans-6d" transform="translate(289.119141 0)"/>
      <use xlink:href="#DejaVuSans-61" transform="translate(386.53125 0)"/>
      <use xlink:href="#DejaVuSans-6e" transform="translate(447.810547 0)"/>
      <use xlink:href="#DejaVuSans-5f" transform="translate(511.189453 0)"/>
      <use xlink:href="#DejaVuSans-53" transform="translate(561.189453 0)"/>
      <use xlink:href="#DejaVuSans-43" transform="translate(624.666016 0)"/>
      <use xlink:href="#DejaVuSans-52" transform="translate(694.490234 0)"/>
     </g>
    </g>
   </g>
   <g id="LineCollection_1">
    <path d="M 82.568794 121.56612 
L 115.086276 121.56612 
" clip-path="url(#p39f0ee33e8)" style="fill: none; stroke: #1f77b4; stroke-width: 2"/>
    <path d="M 212.638724 101.191802 
L 245.156206 101.191802 
" clip-path="url(#p39f0ee33e8)" style="fill: none; stroke: #1f77b4; stroke-width: 2"/>
   </g>
   <g id="LineCollection_2">
    <path d="M 82.568794 89.421202 
L 115.086276 89.421202 
" clip-path="url(#p39f0ee33e8)" style="fill: none; stroke: #d62728; stroke-width: 2"/>
    <path d="M 212.638724 86.787107 
L 245.156206 86.787107 
" clip-path="url(#p39f0ee33e8)" style="fill: none; stroke: #d62728; stroke-width: 2"/>
   </g>
   <g id="LineCollection_3">
    <path d="M 62.407955 214.643858 
L 135.247115 214.643858 
" clip-path="url(#p39f0ee33e8)" style="fill: none; stroke: #2ca02c"/>
   </g>
   <g id="LineCollection_4">
    <path d="M 62.407955 184.9029 
L 135.247115 184.9029 
" clip-path="url(#p39f0ee33e8)" style="fill: none; stroke: #2ca02c"/>
   </g>
   <g id="LineCollection_5">
    <path d="M 62.407955 64.833927 
L 135.247115 64.833927 
" clip-path="url(#p39f0ee33e8)" style="fill: none; stroke: #2ca02c"/>
   </g>
   <g id="LineCollection_6">
    <path d="M 62.407955 48.37753 
L 135.247115 48.37753 
" clip-path="url(#p39f0ee33e8)" style="fill: none; stroke: #2ca02c"/>
   </g>
   <g id="LineCollection_7">
    <path d="M 192.477885 144.164919 
L 265.317045 144.164919 
" clip-path="url(#p39f0ee33e8)" style="fill: none; stroke: #2ca02c"/>
   </g>
   <g id="LineCollection_8">
    <path d="M 192.477885 123.435941 
L 265.317045 123.435941 
" clip-path="url(#p39f0ee33e8)" style="fill: none; stroke: #2ca02c"/>
   </g>
   <g id="LineCollection_9">
    <path d="M 192.477885 73.020631 
L 265.317045 73.020631 
" clip-path="url(#p39f0ee33e8)" style="fill: none; stroke: #2ca02c"/>
   </g>
   <g id="LineCollection_10">
    <path d="M 192.477885 70.56571 
L 265.317045 70.56571 
" clip-path="url(#p39f0ee33e8)" style="fill: none; stroke: #2ca02c"/>
   </g>
   <g id="patch_3">
    <path d="M 52.2625 243.86625 
L 52.2625 22.10625 
" style="fill: none; stroke: #000000; stroke-width: 0.8; stroke-linejoin: miter; stroke-linecap: square"/>
   </g>
   <g id="patch_4">
    <path d="M 275.4625 243.86625 
L 275.4625 22.10625 
" style="fill: none; stroke: #000000; stroke-width: 0.8; stroke-linejoin: miter; stroke-linecap: square"/>
   </g>
   <g id="patch_5">
    <path d="M 52.2625 243.86625 
L 275.4625 243.86625 
" style="fill: none; stroke: #000000; stroke-width: 0.8; stroke-linejoin: miter; stroke-linecap: square"/>
   </g>
   <g id="patch_6">
    <path d="M 52.2625 22.10625 
L 275.4625 22.10625 
" style="fill: none; stroke: #000000; stroke-width: 0.8; stroke-linejoin: miter; stroke-linecap: square"/>
   </g>
   <g id="text_12">
    <!-- Spearman_SCR -->
    <g transform="translate(118.0225 16.10625) scale(0.12 -0.12)">
     <use xlink:href="#DejaVuSans-53"/>
     <use xlink:href="#DejaVuSans-70" transform="translate(63.476562 0)"/>
     <use xlink:href="#DejaVuSans-65" transform="translate(126.953125 0)"/>
     <use xlink:href="#DejaVuSans-61" transform="translate(188.476562 0)"/>
     <use xlink:href="#DejaVuSans-72" transform="translate(249.755859 0)"/>
     <use xlink:href="#DejaVuSans-6d" transform="translate(289.119141 0)"/>
     <use xlink:href="#DejaVuSans-61" transform="translate(386.53125 0)"/>
     <use xlink:href="#DejaVuSans-6e" transform="translate(447.810547 0)"/>
     <use xlink:href="#DejaVuSans-5f" transform="translate(511.189453 0)"/>
     <use xlink:href="#DejaVuSans-53" transform="translate(561.189453 0)"/>
     <use xlink:href="#DejaVuSans-43" transform="translate(624.666016 0)"/>
     <use xlink:href="#DejaVuSans-52" transform="translate(694.490234 0)"/>
    </g>
   </g>
   <g id="legend_1">
    <g id="line2d_19">
     <path d="M 190.948438 199.930312 
L 200.948438 199.930312 
L 210.948438 199.930312 
" style="fill: none; stroke: #1f77b4; stroke-width: 2; stroke-linecap: square"/>
    </g>
    <g id="text_13">
     <!-- Mean -->
     <g transform="translate(218.948438 203.430312) scale(0.1 -0.1)">
      <defs>
       <path id="DejaVuSans-4d" d="M 628 4666 
L 1569 4666 
L 2759 1491 
L 3956 4666 
L 4897 4666 
L 4897 0 
L 4281 0 
L 4281 4097 
L 3078 897 
L 2444 897 
L 1241 4097 
L 1241 0 
L 628 0 
L 628 4666 
z
" transform="scale(0.015625)"/>
      </defs>
      <use xlink:href="#DejaVuSans-4d"/>
      <use xlink:href="#DejaVuSans-65" transform="translate(86.279297 0)"/>
      <use xlink:href="#DejaVuSans-61" transform="translate(147.802734 0)"/>
      <use xlink:href="#DejaVuSans-6e" transform="translate(209.082031 0)"/>
     </g>
    </g>
    <g id="line2d_20">
     <path d="M 190.948438 214.608437 
L 200.948438 214.608437 
L 210.948438 214.608437 
" style="fill: none; stroke: #d62728; stroke-width: 2; stroke-linecap: square"/>
    </g>
    <g id="text_14">
     <!-- Median -->
     <g transform="translate(218.948438 218.108437) scale(0.1 -0.1)">
      <defs>
       <path id="DejaVuSans-64" d="M 2906 2969 
L 2906 4863 
L 3481 4863 
L 3481 0 
L 2906 0 
L 2906 525 
Q 2725 213 2448 61 
Q 2172 -91 1784 -91 
Q 1150 -91 751 415 
Q 353 922 353 1747 
Q 353 2572 751 3078 
Q 1150 3584 1784 3584 
Q 2172 3584 2448 3432 
Q 2725 3281 2906 2969 
z
M 947 1747 
Q 947 1113 1208 752 
Q 1469 391 1925 391 
Q 2381 391 2643 752 
Q 2906 1113 2906 1747 
Q 2906 2381 2643 2742 
Q 2381 3103 1925 3103 
Q 1469 3103 1208 2742 
Q 947 2381 947 1747 
z
" transform="scale(0.015625)"/>
      </defs>
      <use xlink:href="#DejaVuSans-4d"/>
      <use xlink:href="#DejaVuSans-65" transform="translate(86.279297 0)"/>
      <use xlink:href="#DejaVuSans-64" transform="translate(147.802734 0)"/>
      <use xlink:href="#DejaVuSans-69" transform="translate(211.279297 0)"/>
      <use xlink:href="#DejaVuSans-61" transform="translate(239.0625 0)"/>
      <use xlink:href="#DejaVuSans-6e" transform="translate(300.341797 0)"/>
     </g>
    </g>
    <g id="line2d_21">
     <path d="M 190.948438 229.286562 
L 200.948438 229.286562 
L 210.948438 229.286562 
" style="fill: none; stroke: #2ca02c; stroke-linecap: square"/>
    </g>
    <g id="text_15">
     <!-- Quantiles -->
     <g transform="translate(218.948438 232.786562) scale(0.1 -0.1)">
      <defs>
       <path id="DejaVuSans-51" d="M 2522 4238 
Q 1834 4238 1429 3725 
Q 1025 3213 1025 2328 
Q 1025 1447 1429 934 
Q 1834 422 2522 422 
Q 3209 422 3611 934 
Q 4013 1447 4013 2328 
Q 4013 3213 3611 3725 
Q 3209 4238 2522 4238 
z
M 3406 84 
L 4238 -825 
L 3475 -825 
L 2784 -78 
Q 2681 -84 2626 -87 
Q 2572 -91 2522 -91 
Q 1538 -91 948 567 
Q 359 1225 359 2328 
Q 359 3434 948 4092 
Q 1538 4750 2522 4750 
Q 3503 4750 4090 4092 
Q 4678 3434 4678 2328 
Q 4678 1516 4351 937 
Q 4025 359 3406 84 
z
" transform="scale(0.015625)"/>
       <path id="DejaVuSans-75" d="M 544 1381 
L 544 3500 
L 1119 3500 
L 1119 1403 
Q 1119 906 1312 657 
Q 1506 409 1894 409 
Q 2359 409 2629 706 
Q 2900 1003 2900 1516 
L 2900 3500 
L 3475 3500 
L 3475 0 
L 2900 0 
L 2900 538 
Q 2691 219 2414 64 
Q 2138 -91 1772 -91 
Q 1169 -91 856 284 
Q 544 659 544 1381 
z
M 1991 3584 
L 1991 3584 
z
" transform="scale(0.015625)"/>
       <path id="DejaVuSans-73" d="M 2834 3397 
L 2834 2853 
Q 2591 2978 2328 3040 
Q 2066 3103 1784 3103 
Q 1356 3103 1142 2972 
Q 928 2841 928 2578 
Q 928 2378 1081 2264 
Q 1234 2150 1697 2047 
L 1894 2003 
Q 2506 1872 2764 1633 
Q 3022 1394 3022 966 
Q 3022 478 2636 193 
Q 2250 -91 1575 -91 
Q 1294 -91 989 -36 
Q 684 19 347 128 
L 347 722 
Q 666 556 975 473 
Q 1284 391 1588 391 
Q 1994 391 2212 530 
Q 2431 669 2431 922 
Q 2431 1156 2273 1281 
Q 2116 1406 1581 1522 
L 1381 1569 
Q 847 1681 609 1914 
Q 372 2147 372 2553 
Q 372 3047 722 3315 
Q 1072 3584 1716 3584 
Q 2034 3584 2315 3537 
Q 2597 3491 2834 3397 
z
" transform="scale(0.015625)"/>
      </defs>
      <use xlink:href="#DejaVuSans-51"/>
      <use xlink:href="#DejaVuSans-75" transform="translate(78.710938 0)"/>
      <use xlink:href="#DejaVuSans-61" transform="translate(142.089844 0)"/>
      <use xlink:href="#DejaVuSans-6e" transform="translate(203.369141 0)"/>
      <use xlink:href="#DejaVuSans-74" transform="translate(266.748047 0)"/>
      <use xlink:href="#DejaVuSans-69" transform="translate(305.957031 0)"/>
      <use xlink:href="#DejaVuSans-6c" transform="translate(333.740234 0)"/>
      <use xlink:href="#DejaVuSans-65" transform="translate(361.523438 0)"/>
      <use xlink:href="#DejaVuSans-73" transform="translate(423.046875 0)"/>
     </g>
    </g>
   </g>
  </g>
 </g>
 <defs>
  <clipPath id="p39f0ee33e8">
   <rect x="52.2625" y="22.10625" width="223.2" height="221.76"/>
  </clipPath>
 </defs>
</svg>
